<?xml version="1.0" standalone="no"?><!DOCTYPE svg PUBLIC "-//W3C//DTD SVG 1.1//EN" "http://www.w3.org/Graphics/SVG/1.1/DTD/svg11.dtd"><svg t="1503736712730" class="icon" style="" viewBox="0 0 1030 1024" version="1.1" xmlns="http://www.w3.org/2000/svg" p-id="2143" xmlns:xlink="http://www.w3.org/1999/xlink" width="201.171875" height="200"><defs><style type="text/css"></style></defs><path d="M600.050955 1024c-39.133758 0-78.267516-13.044586-104.356687-45.656051L45.656051 528.305732C13.044586 502.216561 0 456.56051 0 417.426752l6.522293-45.656051c0-26.089172 19.566879-45.656051 45.656051-45.656051 13.044586 0 26.089172 6.522293 32.611465 13.044586 6.522293 6.522293 13.044586 19.566879 13.044586 32.611465l-6.522293 52.178344c0 13.044586 6.522293 32.611465 13.044586 45.656051l450.038216 450.038216c13.044586 13.044586 26.089172 13.044586 39.133758 13.044586 13.044586 0 26.089172-6.522293 39.133758-13.044586L913.121019 639.184713c13.044586-13.044586 13.044586-26.089172 13.044586-39.133758s-6.522293-26.089172-13.044586-39.133758L463.082803 110.878981c-6.522293-13.044586-19.566879-19.566879-32.611465-19.566879l-267.414013 19.566879c-26.089172 0-45.656051 26.089172-52.178344 52.178344 0 26.089172-19.566879 45.656051-45.656051 45.656051-26.089172 0-45.656051-26.089172-45.656051-52.178344 6.522293-71.745223 65.22293-130.44586 136.968153-136.968153l260.89172-19.566879h13.044586c39.133758 0 78.267516 13.044586 104.356687 45.656051l450.038217 450.038217c26.089172 26.089172 45.656051 65.22293 45.656051 104.356687s-13.044586 78.267516-45.656051 104.356688l-280.458599 280.458599c-26.089172 26.089172-65.22293 39.133758-104.356688 39.133758z" p-id="2144"></path><path d="M600.050955 1017.477707c-39.133758 0-71.745223-13.044586-97.834394-39.133758L52.178344 521.783439C19.566879 495.694268 6.522293 456.56051 13.044586 417.426752l6.522293-45.656051c0-19.566879 19.566879-32.611465 39.133758-32.611465s32.611465 19.566879 32.611465 39.133758l-13.044586 45.656051c0 19.566879 6.522293 39.133758 19.566879 52.178344l450.038216 450.038216c13.044586 13.044586 26.089172 19.566879 45.656051 19.566879 19.566879 0 32.611465-6.522293 45.656051-19.566879l280.458599-280.458599c26.089172-26.089172 26.089172-65.22293 0-91.312102l-443.515923-456.560509c-13.044586-13.044586-32.611465-19.566879-52.178344-19.566879l-260.89172 19.566879c-32.611465 6.522293-58.700637 32.611465-58.700637 65.22293-6.522293 19.566879-19.566879 32.611465-39.133758 32.611465s-32.611465-19.566879-32.611465-39.133758C39.133758 91.312102 91.312102 39.133758 156.535032 32.611465l260.89172-19.566879C456.56051 6.522293 495.694268 19.566879 521.783439 52.178344l456.56051 450.038217c52.178344 52.178344 52.178344 136.968153 0 189.146496L697.88535 978.343949c-26.089172 26.089172-65.22293 39.133758-97.834395 39.133758z m0 0" p-id="2145"></path><path d="M332.636943 476.127389c-84.789809 0-150.012739-65.22293-150.012739-150.012739s65.22293-150.012739 150.012739-150.012739 150.012739 65.22293 150.012739 150.012739-65.22293 150.012739-150.012739 150.012739z m0-208.713376c-32.611465 0-58.700637 26.089172-58.700637 58.700637s26.089172 58.700637 58.700637 58.700637 58.700637-26.089172 58.700637-58.700637-26.089172-58.700637-58.700637-58.700637z" p-id="2146"></path><path d="M332.636943 469.605096C260.89172 469.605096 195.66879 404.382166 195.66879 326.11465c0-78.267516 65.22293-136.968153 136.968153-136.968153 78.267516 0 136.968153 65.22293 136.968153 136.968153 6.522293 78.267516-58.700637 143.490446-136.968153 143.490446z m0-208.713376c-32.611465 0-65.22293 26.089172-65.22293 65.22293s32.611465 71.745223 71.745223 71.745223c39.133758 0 71.745223-32.611465 71.745223-71.745223-6.522293-39.133758-39.133758-65.22293-78.267516-65.22293z m0 0" p-id="2147"></path></svg>