<?xml version="1.0" standalone="no"?><!DOCTYPE svg PUBLIC "-//W3C//DTD SVG 1.1//EN" "http://www.w3.org/Graphics/SVG/1.1/DTD/svg11.dtd"><svg t="1503736734623" class="icon" style="" viewBox="0 0 1028 1024" version="1.1" xmlns="http://www.w3.org/2000/svg" p-id="3552" xmlns:xlink="http://www.w3.org/1999/xlink" width="200.78125" height="200"><defs><style type="text/css"></style></defs><path d="M1021.00006 682.485883c-6.355755 102.659101-98.231255 184.307679-209.266118 184.307679l-176.074158 1.654686-386.592802-4.137227c-128.866996 0-238.6084-98.984409-243.700371-220.208331C0.270547 531.517519 79.374162 433.799964 190.373209 410.292574c5.095042-82.873476 43.373857-160.822802 108.453061-216.503962 68.914556-59.373249 158.242024-87.827301 251.379261-77.929884 141.631718 13.594623 259.016195 118.772081 283.235806 254.850315 6.385431 34.643008 7.674796 68.025303 2.579755 101.437274 49.730635 3.725858 96.941889 25.987884 130.12157 61.853743C1005.712889 574.838164 1024.832342 626.76686 1021.00006 682.485883L1021.00006 682.485883 1021.00006 682.485883 1021.00006 682.485883zM938.084629 558.762023c-31.896454-32.171724-74.005504-50.738591-121.217782-50.738591l-3.803629 0c-6.421246 0-11.512195-2.480494-15.353686-6.185886-3.833305-4.948709-5.092995-9.891278-3.833305-16.096607 7.674796-35.84437 8.93244-72.981175 1.289366-108.862383C773.494013 256.878508 670.135994 165.337629 545.109466 151.735843c-80.397075-8.652054-159.501714 16.07921-220.772172 69.264527-59.95244 51.976792-95.684246 126.186957-95.684246 205.374484 0 8.662287-6.354731 17.321504-16.573467 18.558681C112.527237 458.530205 39.808028 543.908734 43.642356 642.844024c3.803629 101.471043 96.971565 185.608302 206.712969 185.608302l282.841833-0.069585 1.88493 0 95.251388 0c0.100284 0 0.163729 0.069585 0.234337 0.069585l181.173293 0c90.620927 0 165.883051-65.575508 171.015955-149.674904C985.303047 634.212436 969.947314 590.902024 938.084629 558.762023L938.084629 558.762023 938.084629 558.762023 938.084629 558.762023zM513.844391 373.697097 513.844391 373.697097 665.665169 520.943696c7.647167 7.408737 7.647167 18.559705 0 25.970488-3.833305 3.723811-8.93244 6.204305-14.028505 6.204305-5.092995 0-10.18292-1.24434-14.024411-4.962012l-117.414153-114.870214 0 224.972844c0 4.764514-1.092891 69.39858-0.36532 73.977875l-40.992623 0c-0.432859-4.239558 0-75.697029 0-80.050174L478.840156 432.05932 361.981658 546.914184c-7.638981 7.427156-19.1215 7.427156-26.76355 0-7.67889-7.410783-7.67889-18.561751 0-25.970488l151.826917-147.247622C494.688099 366.28836 507.458961 366.28836 513.844391 373.697097L513.844391 373.697097 513.844391 373.697097zM635.655691 873.565802l-0.052189 0-386.593825-4.137227c-63.562665 0-124.538411-23.427572-171.640172-65.964364C30.160297 760.828159 2.773554 704.309934 0.25315 644.318608-4.859287 531.378349 72.850585 431.803493 185.525807 406.119531c3.00238-40.760332 13.760398-79.95603 31.999808-116.557646 18.99154-38.110993 45.225017-71.641667 77.973886-99.660814 30.329772-26.130124 64.520479-46.38647 101.610212-60.191894 37.253462-13.866822 76.55456-20.897959 116.810403-20.897959 12.193717 0 24.580838 0.660032 36.824697 1.960655 69.593008 6.680143 136.565329 36.078707 188.525748 82.776262 25.696242 23.091928 47.248094 49.777707 64.061015 79.314417 17.274432 30.351262 29.098735 62.97017 35.146475 96.951099 6.375198 34.58775 7.484462 66.624397 3.369747 97.713462 49.03888 5.003967 95.433536 27.760251 128.013559 62.956867 20.154016 20.815071 35.224246 44.502563 44.786019 70.408583 9.561773 25.90295 13.414521 53.472865 11.455913 81.945337-3.162016 51.066049-26.989701 98.717326-67.094094 134.136-40.114626 35.427884-92.417853 54.939263-147.274228 54.939263L635.655691 873.565802zM513.920116 119.043257c-77.704756 0-152.907529 27.921933-211.756845 78.621639-63.710021 54.509475-101.593839 130.128733-106.685811 212.941833l-0.23843 3.88447-3.808746 0.806365C81.636692 438.551174 5.53341 534.679535 10.477003 643.871423c4.988618 118.737288 112.01826 215.32409 238.588957 215.32409l386.599965 4.137227 176.020946-1.654686c108.298542 0 197.97598-78.849836 204.207915-179.508373 3.759627-54.665017-14.716166-104.657618-53.423747-144.608515l-0.081864-0.085958c-32.045857-34.643008-78.245062-56.593949-126.745682-60.225663l-5.508457-0.412392 0.831948-5.460362c4.822842-31.633465 3.986801-64.257489-2.554172-99.738585C804.534983 237.483786 689.932875 134.411269 549.718437 120.952746 537.780547 119.682823 525.754652 119.043257 513.920116 119.043257zM811.740082 833.568856l-182.322465 0-0.153496-0.069585-96.064916 0-282.841833 0.069585c-54.283324 0-106.313328-19.910469-146.506748-56.0649-40.229237-36.186154-63.426565-83.940784-65.320705-134.467551-1.90335-49.122791 14.669094-96.879468 46.665833-134.465504 31.972179-37.558407 76.787874-61.959144 126.192074-68.707848 7.918343-0.958838 12.149714-7.662517 12.149714-13.489222 0-79.284741 35.518958-155.548682 97.448426-209.240535 53.641711-46.562479 122.067126-72.207555 192.667068-72.207555 10.618848 0 21.385053 0.579191 32.003901 1.722224 61.750389 6.716982 120.934327 32.980135 166.652578 73.949222 46.678112 41.827641 77.064166 95.52461 87.87642 155.293879 7.421017 34.893718 6.980995 72.210625-1.306762 110.921275-0.905626 4.470825-0.14224 7.871271 2.650363 11.596106 3.218298 2.986007 7.095605 4.499477 11.533684 4.499477l3.803629 0c47.787376 0 90.960665 18.068518 124.851543 52.252061 32.454156 32.735565 48.842405 76.740802 46.147016 123.910101C982.579005 765.714446 905.21501 833.568856 811.740082 833.568856zM631.193053 823.335794l180.548052 0c88.075964 0 160.952762-63.634296 165.909657-144.869459 2.526543-44.215014-12.812817-85.454254-43.196825-116.101251-31.92613-32.203446-72.587202-49.225121-117.584022-49.225121l-3.805676 0c-7.201006 0-13.738909-2.635013-18.905582-7.619538l-0.26606-0.255827-0.228197-0.292666c-4.816702-6.219655-6.343475-12.652158-4.802376-20.24816 8.000208-37.372166 8.43409-73.27998 1.299599-106.778932l-0.029676-0.156566c-21.069875-116.66407-122.054847-207.52752-245.575068-220.965577-10.251481-1.103124-20.650319-1.662873-30.902824-1.662873-68.134797 0-134.178979 24.7548-185.962366 69.704548-59.689451 51.748594-93.92109 125.195374-93.92109 201.51048 0 12.021801-9.060353 22.183232-21.074991 23.638373C115.525524 463.284485 45.013587 546.102702 48.754794 642.646526c3.735068 99.635231 94.1718 180.689269 201.600531 180.689269l284.726763-0.069585 95.251388 0C630.623072 823.26621 630.910621 823.288722 631.193053 823.335794zM525.82833 737.394447l-5.995551-0.039909-45.61285 0-0.468674-4.595668c-0.273223-2.674922-0.290619-23.775496-0.059352-72.831772 0.019443-4.157693 0.031722-6.975878 0.031722-7.739265l0-207.925586L365.56937 550.563294c-4.674463 4.54348-10.69355 7.037277-16.96744 7.037277-6.272867 0-12.292977-2.493797-16.949021-7.016811-4.710278-4.545526-7.310499-10.465352-7.310499-16.656355 0-6.191003 2.601244-12.109806 7.322779-16.664541l151.817708-147.238412c4.589528-4.449335 10.943236-7.000438 17.434068-7.000438 6.573719 0 12.623505 2.601244 16.641005 7.14677l151.671375 147.100266c4.701069 4.552689 7.28901 10.467399 7.28901 16.654308 0 6.187933-2.587941 12.104689-7.291057 16.661472-5.000897 4.857635-11.411911 7.646144-17.588587 7.646144-7.278777 0-13.195533-2.153036-17.582447-6.40078l-108.742656-106.382912 0 212.808804c0 1.091868-0.052189 4.944616-0.12996 10.775414-0.215918 16.007579-0.787946 58.523905-0.293689 62.442144L525.82833 737.394447zM483.819564 727.121476l30.695093 0c-0.12996-8.53335 0.01228-26.414603 0.440022-58.222029 0.075725-5.582135 0.12996-9.614985 0.12996-10.638291L515.084639 421.123246l126.108163 123.375935c2.394537 2.318812 5.913687 3.502777 10.444886 3.502777 3.485381 0 7.397481-1.778506 10.465352-4.757351 2.700505-2.616594 4.183276-5.922896 4.183276-9.31618 0-3.390213-1.482771-6.697539-4.179183-9.309016L510.118534 377.211131l-0.149403-0.172939c-2.069125-2.403746-5.370311-3.780093-9.05319-3.780093-3.855818 0-7.612375 1.499144-10.310833 4.114714L338.780237 524.616342c-2.714831 2.620687-4.204765 5.922896-4.204765 9.311063 0 3.390213 1.489934 6.694469 4.195555 9.30697 2.7486 2.669806 6.235005 4.13518 9.829879 4.13518 3.594875 0 7.079232-1.465374 9.813506-4.121877l125.542274-123.389238 0 232.331439c0 0.766456-0.013303 3.603061-0.032746 7.785314C483.856403 674.278967 483.672208 713.415312 483.819564 727.121476z" p-id="3553"></path></svg>