<?xml version="1.0" standalone="no"?><!DOCTYPE svg PUBLIC "-//W3C//DTD SVG 1.1//EN" "http://www.w3.org/Graphics/SVG/1.1/DTD/svg11.dtd"><svg t="1503736700481" class="icon" style="" viewBox="0 0 1024 1024" version="1.1" xmlns="http://www.w3.org/2000/svg" p-id="1816" xmlns:xlink="http://www.w3.org/1999/xlink" width="200" height="200"><defs><style type="text/css"></style></defs><path d="M921.736407 892.521526 921.736407 892.521526 102.270756 892.521526c-16.189727 0-29.27986-13.09218-29.27986-29.271674L72.990896 629.118418c0-16.145725 13.090133-29.271674 29.27986-29.271674 16.164145 0 29.254278 13.125949 29.254278 29.271674l0 204.867948 760.947885 0L892.472919 629.118418c0-16.145725 13.090133-29.271674 29.263487-29.271674 16.181541 0 29.27065 13.125949 29.27065 29.271674l0 234.130412C951.008081 879.429347 937.917948 892.521526 921.736407 892.521526zM637.810892 356.937388l-96.538707-117.016087 0 418.406368c0 16.208147-13.093203 29.316699-29.272697 29.316699-16.171308 0-29.254278-13.109576-29.254278-29.316699L482.745211 241.046938l-95.646384 115.89045c-11.45796 11.546987-30.067806 11.546987-41.525766 0-11.492752-11.519358-11.492752-30.210046 0-41.72838l144.646378-175.346587c6.116301-6.144954 14.233166-8.760524 22.242584-8.340969 8.002254-0.419556 16.109909 2.196015 22.262026 8.340969L679.345868 315.209008c11.482519 11.518335 11.482519 30.209022 0 41.72838C667.878698 368.484376 649.288295 368.484376 637.810892 356.937388z" p-id="1817"></path></svg>