<!-- Generated by IcoMoon.io -->
<svg version="1.1" xmlns="http://www.w3.org/2000/svg" width="32" height="32" viewBox="0 0 32 32">
<title>adress</title>
<path d="M15.934 29.988c-6.697 0-11.8-11.581-11.8-17.375 0-5.853 5.294-10.616 11.8-10.616 2.7 0 5.341 0.841 7.431 2.369 0.788 0.572 1.488 1.237 2.087 1.972 0.609 0.747 1.106 1.563 1.481 2.425 0.531 1.228 0.8 2.522 0.8 3.85-0.003 5.794-5.103 17.375-11.8 17.375zM15.934 4.622c-5.059 0-9.175 3.584-9.175 7.991 0 4.606 4.434 14.75 9.175 14.75s9.172-10.144 9.172-14.75c0-0.969-0.197-1.912-0.584-2.809-0.278-0.641-0.65-1.247-1.106-1.806-0.456-0.563-0.997-1.069-1.6-1.509-1.644-1.206-3.734-1.866-5.881-1.866z"></path>
<path d="M15.934 17.975c-2.834 0-5.141-2.306-5.141-5.141s2.306-5.141 5.141-5.141c1.103 0 2.153 0.344 3.041 0.997l-1.553 2.116c-0.434-0.319-0.95-0.488-1.488-0.488-1.387 0-2.516 1.128-2.516 2.516s1.128 2.516 2.516 2.516 2.516-1.128 2.516-2.516h2.625c0 2.834-2.306 5.141-5.141 5.141z"></path>
</svg>
