<!-- Generated by IcoMoon.io -->
<svg version="1.1" xmlns="http://www.w3.org/2000/svg" width="32" height="32" viewBox="0 0 32 32">
<title>alter</title>
<path d="M29.488 3.194l-1.372-1.372c-0.194-0.194-0.506-0.194-0.7 0l-14.922 14.925c-0.194 0.194-0.194 0.506 0 0.7l1.372 1.372c0.194 0.194 0.506 0.194 0.7 0l14.922-14.922c0.194-0.197 0.194-0.509 0-0.703z"></path>
<path d="M27.075 11.522v14.581c0 0.159-0.128 0.288-0.288 0.288h-21.563c-0.159 0-0.287-0.128-0.287-0.288v-20.019c0-0.159 0.128-0.287 0.287-0.287h12.384l2.928-2.928h-15.309c-1.775 0-3.216 1.444-3.216 3.216v20.019c0 1.775 1.444 3.216 3.216 3.216h21.563c1.775 0 3.216-1.444 3.216-3.216v-17.512l-2.931 2.931z"></path>
</svg>
