<!-- Generated by IcoMoon.io -->
<svg version="1.1" xmlns="http://www.w3.org/2000/svg" width="32" height="32" viewBox="0 0 32 32">
<title>await</title>
<path d="M2.622 27.666c0 1.284 1.044 2.328 2.328 2.328h22.119c1.284 0 2.328-1.044 2.328-2.328v-3.584c0-0.063-0.012-0.122-0.019-0.184h0.006l-0.016-0.097c-0.009-0.084-0.019-0.169-0.038-0.25l-2.056-13.531c-0.056-1.234-1.078-2.219-2.325-2.219h-3.959v2.453h3.837l1.747 11.497h-21.116l1.816-11.497h3.753v-2.453h-3.875c-1.247 0-2.266 0.984-2.325 2.216l-2.134 13.522c-0.022 0.091-0.031 0.181-0.044 0.275l-0.013 0.078h0.003c-0.006 0.063-0.019 0.125-0.019 0.191v3.584zM5.075 24.206h21.866v3.331h-21.866v-3.331z"></path>
<path d="M16.009 16.712c0.675 0 1.228-0.553 1.228-1.228v-9.356l1.012 1.013c0.478 0.478 1.259 0.478 1.734 0 0.478-0.478 0.478-1.259 0-1.734l-3.1-3.1c-0.003-0.003-0.003-0.006-0.006-0.009-0.094-0.094-0.203-0.153-0.316-0.209-0.028-0.016-0.050-0.041-0.078-0.053-0.15-0.063-0.313-0.097-0.475-0.097v0 0c-0.162 0-0.322 0.034-0.475 0.097-0.031 0.013-0.053 0.038-0.081 0.053-0.109 0.056-0.222 0.116-0.313 0.206-0.003 0.003-0.003 0.006-0.006 0.009l-3.1 3.103c-0.478 0.478-0.478 1.259 0 1.734 0.478 0.478 1.259 0.478 1.734 0l1.012-1.013v9.356c0 0.678 0.553 1.228 1.228 1.228z"></path>
</svg>
