<!-- Generated by IcoMoon.io -->
<svg version="1.1" xmlns="http://www.w3.org/2000/svg" width="32" height="32" viewBox="0 0 32 32">
<title>close-2</title>
<path d="M16 2c-7.719 0-14 6.28-14 14s6.28 14 14 14c7.719 0 14-6.28 14-14s-6.28-14-14-14zM21.711 20.312c0.39 0.392 0.389 1.024-0.002 1.414-0.195 0.194-0.45 0.292-0.706 0.292-0.257 0-0.513-0.098-0.708-0.294l-4.3-4.313-4.314 4.268c-0.195 0.192-0.449 0.289-0.703 0.289-0.258 0-0.515-0.099-0.711-0.297-0.388-0.393-0.385-1.025 0.008-1.414l4.309-4.262-4.293-4.307c-0.39-0.391-0.389-1.024 0.002-1.414 0.391-0.391 1.023-0.389 1.414 0.002l4.299 4.312 4.314-4.268c0.392-0.389 1.026-0.385 1.414 0.008s0.385 1.026-0.008 1.414l-4.309 4.262 4.294 4.308z"></path>
</svg>
