<!-- Generated by IcoMoon.io -->
<svg version="1.1" xmlns="http://www.w3.org/2000/svg" width="32" height="32" viewBox="0 0 32 32">
<title>coupon</title>
<path d="M10.234 11.853h11.488v2.553h-11.488v-2.553z"></path>
<path d="M10.234 18.234h11.488v2.553h-11.488v-2.553z"></path>
<path d="M27.75 3.819h-23.541c-1.228 0-2.231 1.087-2.231 2.422v7.419c1.075 0 1.987 0.738 2.35 1.769 0.106 0.303 0.172 0.628 0.172 0.969s-0.066 0.669-0.172 0.969c-0.362 1.031-1.275 1.769-2.35 1.769v0 6.594c0 1.334 1 2.422 2.231 2.422h23.541c1.231 0 2.231-1.087 2.231-2.422v-6.591c-0.006 0-0.012 0.003-0.019 0.003-1.053 0-1.953-0.706-2.331-1.703-0.122-0.322-0.191-0.669-0.191-1.038s0.069-0.716 0.191-1.037c0.378-0.997 1.278-1.703 2.331-1.703 0.006 0 0.012 0.003 0.019 0.003v-7.422c-0.003-1.334-1.003-2.422-2.231-2.422zM25.087 16.4c0 1.997 1.034 3.716 2.541 4.619v4.584h-23.297v-4.597c1.497-0.903 2.522-2.619 2.522-4.606s-1.025-3.703-2.522-4.606v-5.422h23.297v5.406c-1.506 0.903-2.541 2.625-2.541 4.622z"></path>
</svg>
