<!-- Generated by IcoMoon.io -->
<svg version="1.1" xmlns="http://www.w3.org/2000/svg" width="32" height="32" viewBox="0 0 32 32">
<title>godPrice</title>
<path d="M26.416 4.731h-5.563c-1.313 0-3.144 0.759-4.069 1.684l-9.344 9.344c-0.928 0.928-0.928 2.444 0 3.372l6.959 6.959c0.928 0.928 2.444 0.928 3.372 0l9.341-9.341c0.928-0.928 1.684-2.759 1.684-4.069v-5.563c0.003-1.313-1.072-2.388-2.381-2.388v0zM23.238 12.678c-1.316 0-2.384-1.069-2.384-2.384s1.069-2.384 2.384-2.384c1.316 0 2.384 1.069 2.384 2.384s-1.069 2.384-2.384 2.384v0zM3.934 18.006l8.5 8.5c-0.9 0.475-2.047 0.337-2.803-0.419l-6.956-6.956c-0.928-0.928-0.928-2.444 0-3.372l9.341-9.341c0.928-0.928 2.759-1.684 4.069-1.684l-12.15 12.15c-0.309 0.309-0.309 0.816 0 1.122v0z"></path>
</svg>
