<!-- Generated by IcoMoon.io -->
<svg version="1.1" xmlns="http://www.w3.org/2000/svg" width="32" height="32" viewBox="0 0 32 32">
<title>order</title>
<path d="M5.984 29.978h20.091c1.275 0 2.313-1.038 2.313-2.313v-21.047c0-1.275-1.038-2.313-2.313-2.313h-3.319c0-1.275-1.038-2.313-2.313-2.313h-8.828c-1.275 0-2.313 1.038-2.313 2.313h-3.319c-1.275 0-2.313 1.037-2.313 2.313v21.047c0 1.275 1.037 2.313 2.313 2.313zM11.744 4.434h8.578v2.184h-8.578v-2.184zM6.109 6.744h3.194c0 1.275 1.037 2.313 2.313 2.313h8.828c1.275 0 2.313-1.037 2.313-2.313h3.194v20.797h-19.841v-20.797z"></path>
<path d="M17.022 17.316c-1.491-0.331-2.175-0.747-2.050-1.244-0.041-0.622 0.291-0.909 0.994-0.869 0.747 0 1.159 0.309 1.244 0.931h2.3c-0.034-1.478-0.794-2.359-2.259-2.666v-0.859h-2.438v0.847c-1.637 0.294-2.503 1.181-2.572 2.678-0.041 0.828 0.188 1.469 0.684 1.925s1.344 0.806 2.547 1.056c1.244 0.291 1.841 0.706 1.8 1.244 0 0.706-0.434 1.056-1.303 1.056s-1.347-0.372-1.428-1.119h-2.422c0 1.591 0.906 2.506 2.697 2.769v0.819h2.438v-0.831c1.853-0.284 2.762-1.238 2.694-2.881-0.003-1.406-0.978-2.359-2.925-2.856z"></path>
</svg>
