<!-- Generated by IcoMoon.io -->
<svg version="1.1" xmlns="http://www.w3.org/2000/svg" width="32" height="32" viewBox="0 0 32 32">
<title>service</title>
<path d="M7.291 29.95c-0.644 0-1.291-0.244-1.781-0.738l-2.672-2.672c-1.084-1.081-1.084-2.837 0-3.922l5.375-5.375c0.069-0.069 0.088-0.169 0.056-0.256-1.5-4.063-0.537-8.659 2.55-11.75 3.366-3.359 8.519-4.2 12.822-2.087l1.744 0.856-5.884 5.884c-0.1 0.1-0.1 0.259 0 0.359l2.125 2.125c0.1 0.1 0.259 0.1 0.359 0l5.884-5.884 0.856 1.741c2.116 4.306 1.275 9.456-2.091 12.822v0 0c-3.087 3.091-7.684 4.050-11.75 2.55-0.091-0.034-0.191-0.012-0.256 0.056l-5.556 5.553c-0.491 0.494-1.134 0.738-1.781 0.738zM4.984 24.759l2.128 2.128c0.1 0.1 0.259 0.1 0.359 0l6.675-6.675 0.891 0.441c3.241 1.587 7.109 0.962 9.631-1.563v0c1.919-1.919 2.741-4.613 2.328-7.219-0.031-0.203-0.297-0.284-0.441-0.137l-2.791 2.791c-1.081 1.081-2.837 1.081-3.919 0l-2.494-2.494c-1.081-1.081-1.081-2.838 0-3.919l2.791-2.791c0.147-0.147 0.066-0.409-0.137-0.441-2.606-0.416-5.3 0.409-7.219 2.325-2.525 2.525-3.153 6.394-1.563 9.631l0.438 0.894-6.678 6.672c-0.097 0.097-0.097 0.259 0 0.356z"></path>
</svg>
