<!-- Generated by IcoMoon.io -->
<svg version="1.1" xmlns="http://www.w3.org/2000/svg" width="32" height="32" viewBox="0 0 32 32">
<title>top</title>
<path d="M27.729 19.286l-11.043-10.942c-0.016-0.016-0.038-0.021-0.055-0.036-0.004-0.004-0.005-0.010-0.009-0.014-0.393-0.388-1.026-0.386-1.415 0.006l-10.941 11.042c-0.389 0.393-0.386 1.025 0.006 1.414 0.195 0.193 0.45 0.29 0.704 0.29 0.257 0 0.515-0.099 0.71-0.296l10.245-10.338 10.39 10.294c0.195 0.193 0.449 0.29 0.704 0.29 0.258 0 0.515-0.099 0.71-0.296 0.389-0.392 0.386-1.025-0.006-1.414z"></path>
</svg>
