<!-- Generated by IcoMoon.io -->
<svg version="1.1" xmlns="http://www.w3.org/2000/svg" width="32" height="32" viewBox="0 0 32 32">
<title>user</title>
<path d="M21.056 15.409c1.6-1.406 2.616-3.463 2.616-5.756 0-4.222-3.434-7.659-7.659-7.659-4.222 0-7.659 3.434-7.659 7.659 0 2.294 1.012 4.35 2.616 5.756-4.634 2.266-7.903 7.65-7.903 13.919h3.047c0-6.625 4.369-12.016 9.741-12.016v-0.003c0.053 0 0.106 0.003 0.159 0.003s0.106-0.003 0.159-0.003v0.003c5.369 0 9.741 5.391 9.741 12.016h3.047c-0.003-6.269-3.269-11.653-7.903-13.919zM11.4 9.653c0-2.544 2.069-4.612 4.612-4.612s4.613 2.069 4.613 4.612-2.069 4.613-4.613 4.613c-2.544 0-4.613-2.069-4.613-4.613z"></path>
</svg>
