<?xml version="1.0" encoding="utf-8"?>
<!-- Generator: Adobe Illustrator 19.0.0, SVG Export Plug-In . SVG Version: 6.00 Build 0)  -->
<svg version="1.1" id="图层_1" xmlns="http://www.w3.org/2000/svg" xmlns:xlink="http://www.w3.org/1999/xlink" x="0px" y="0px"
	 viewBox="0 0 1024 1024" style="enable-background:new 0 0 1024 1024;" xml:space="preserve">
<style type="text/css">
	.st0{fill:#231815;}
</style>
<g id="XMLID_83_">
	<rect id="XMLID_85_" x="327.5" y="379.3" class="st0" width="367.6" height="81.7"/>
</g>
<g id="XMLID_82_">
	<rect id="XMLID_84_" x="327.5" y="583.5" class="st0" width="367.6" height="81.7"/>
</g>
<path id="XMLID_77_" class="st0" d="M888,122.2H134.7c-39.3,0-71.4,34.8-71.4,77.5v155.7v81.7h0c34.4,0,63.6,23.6,75.2,56.6
	c3.4,9.7,5.5,20.1,5.5,31s-2.1,21.4-5.5,31c-11.6,33-40.8,56.6-75.2,56.6h0v81.7v129.3c0,42.7,32,77.5,71.4,77.5H888
	c39.4,0,71.4-34.8,71.4-77.5V694.1v-81.7c-0.2,0-0.4,0.1-0.6,0.1c-33.7,0-62.5-22.6-74.6-54.5c-3.9-10.3-6.1-21.4-6.1-33.2
	c0-11.8,2.2-22.9,6.1-33.2c12.1-31.9,40.9-54.5,74.6-54.5c0.2,0,0.4,0.1,0.6,0.1v-81.7V199.7C959.3,157,927.3,122.2,888,122.2z
	 M802.8,524.8c0,63.9,33.1,118.9,81.3,147.8v146.7H138.6V672.2c47.9-28.9,80.7-83.8,80.7-147.4s-32.8-118.5-80.7-147.4V203.9h745.5
	v173C835.9,405.8,802.8,460.9,802.8,524.8z"/>
</svg>
