<!-- Generated by IcoMoon.io -->
<svg version="1.1" xmlns="http://www.w3.org/2000/svg" width="32" height="32" viewBox="0 0 32 32">
<title>addicon</title>
<path d="M23.756 7.397c2.425 2.197 3.816 5.328 3.816 8.597 0 6.391-5.2 11.594-11.594 11.594s-11.594-5.2-11.594-11.594 5.2-11.591 11.594-11.591c1.903 0 3.788 0.469 5.456 1.359l1.141-2.134c-2.016-1.078-4.297-1.647-6.597-1.647-7.722 0.003-14.009 6.287-14.009 14.012 0 7.728 6.284 14.012 14.012 14.012s14.012-6.284 14.012-14.012c0-3.95-1.681-7.738-4.613-10.391l-1.625 1.794z"></path>
<path d="M16 24.075c0.669 0 1.212-0.541 1.212-1.212v-5.675h5.678c0.669 0 1.212-0.541 1.212-1.213s-0.544-1.213-1.212-1.213h-5.678v-5.675c0-0.669-0.544-1.213-1.213-1.213s-1.213 0.541-1.213 1.213v5.678h-5.675c-0.669 0-1.213 0.541-1.213 1.213s0.544 1.212 1.213 1.212h5.678v5.678c-0.003 0.666 0.541 1.206 1.209 1.206z"></path>
</svg>
