<!-- Generated by IcoMoon.io -->
<svg version="1.1" xmlns="http://www.w3.org/2000/svg" width="32" height="32" viewBox="0 0 32 32">
<title>checked-1</title>
<path d="M16 2.062c-7.685 0-13.938 6.253-13.938 13.938s6.252 13.938 13.938 13.938 13.938-6.252 13.938-13.938c0-7.685-6.252-13.938-13.938-13.938zM22.726 13.701l-8.007 8.094c-0.002 0.002-0.006 0.003-0.008 0.006-0.003 0.002-0.003 0.006-0.006 0.008-0.064 0.062-0.143 0.1-0.217 0.142-0.037 0.021-0.067 0.053-0.106 0.068-0.12 0.048-0.247 0.073-0.374 0.073-0.128 0-0.257-0.025-0.378-0.075-0.040-0.017-0.072-0.051-0.11-0.072-0.074-0.042-0.151-0.079-0.215-0.142-0.002-0.002-0.003-0.006-0.005-0.008-0.002-0.003-0.006-0.003-0.008-0.006l-3.938-4.047c-0.385-0.396-0.376-1.029 0.020-1.414 0.396-0.384 1.028-0.377 1.414 0.020l3.227 3.316 7.29-7.37c0.388-0.393 1.022-0.397 1.414-0.008s0.395 1.022 0.007 1.415z"></path>
</svg>
