<!-- Generated by IcoMoon.io -->
<svg version="1.1" xmlns="http://www.w3.org/2000/svg" width="32" height="32" viewBox="0 0 32 32">
<title>company</title>
<path d="M11.412 21.212h-2.666c-0.291 0-0.528 0.238-0.528 0.528v1.647c0 0.291 0.238 0.528 0.528 0.528h2.666c0.291 0 0.528-0.238 0.528-0.528v-1.647c0-0.291-0.238-0.528-0.528-0.528z"></path>
<path d="M11.412 14.697h-2.666c-0.291 0-0.528 0.238-0.528 0.528v1.647c0 0.291 0.238 0.528 0.528 0.528h2.666c0.291 0 0.528-0.238 0.528-0.528v-1.647c0-0.287-0.238-0.528-0.528-0.528z"></path>
<path d="M11.412 8.184h-2.666c-0.291 0-0.528 0.238-0.528 0.528v1.647c0 0.291 0.238 0.528 0.528 0.528h2.666c0.291 0 0.528-0.238 0.528-0.528v-1.647c0-0.291-0.238-0.528-0.528-0.528z"></path>
<path d="M26.244 9.528h-5.394v0.006h-0.228c-0.291 0-0.528 0.238-0.528 0.528v1.647c0 0.291 0.238 0.528 0.528 0.528h0.228v0.006h5.394c0.147 0 0.266 0.122 0.266 0.269v14.481c0 0.147-0.119 0.269-0.266 0.269h-8.609c-0.147 0-0.269-0.122-0.269-0.269v-22.009c0-1.647-1.341-2.987-2.984-2.987h-8.606c-1.647 0-2.984 1.341-2.984 2.987v22.016c0 1.647 1.341 2.988 2.984 2.988h8.606c0.6 0 1.156-0.181 1.625-0.488 0.469 0.306 1.025 0.488 1.628 0.488h8.606c1.647 0 2.984-1.341 2.984-2.988v-14.484c0.003-1.647-1.334-2.988-2.981-2.988zM14.65 12.516v14.481c0 0.147-0.119 0.269-0.266 0.269h-8.609c-0.147 0-0.266-0.122-0.266-0.269v-22.016c0-0.147 0.119-0.269 0.266-0.269h8.606c0.147 0 0.266 0.122 0.266 0.269v7.534z"></path>
</svg>
