<!-- Generated by IcoMoon.io -->
<svg version="1.1" xmlns="http://www.w3.org/2000/svg" width="32" height="32" viewBox="0 0 32 32">
<title>del</title>
<path d="M25.047 26.959c0 0.15-0.122 0.269-0.269 0.269h-3.991v-16.137h-2.747v16.141h-4.081v-16.141h-2.747v16.141h-3.991c-0.15 0-0.269-0.122-0.269-0.269v-15.872h-2.747v15.869c0 1.663 1.353 3.019 3.016 3.019h17.553c1.663 0 3.016-1.353 3.016-3.019v-15.869h-2.747v15.869z"></path>
<path d="M28.766 5.594h-7.772c-0.141 0-0.272-0.084-0.331-0.213l-1.438-3.163c-0.059-0.128-0.188-0.212-0.331-0.212h-5.662c-0.141 0-0.272 0.084-0.331 0.212l-1.438 3.163c-0.059 0.128-0.188 0.213-0.331 0.213h-7.897c-0.2 0-0.362 0.162-0.362 0.362v2.022c0 0.2 0.163 0.363 0.362 0.363h9.669c0.141 0 0.272-0.084 0.331-0.213l1.438-3.162c0.059-0.128 0.188-0.213 0.331-0.213h2.122c0.141 0 0.272 0.084 0.331 0.213l1.438 3.162c0.059 0.128 0.188 0.213 0.331 0.213h9.544c0.2 0 0.363-0.162 0.363-0.362v-2.022c-0.003-0.2-0.166-0.362-0.366-0.362z"></path>
</svg>
