<!-- Generated by IcoMoon.io -->
<svg version="1.1" xmlns="http://www.w3.org/2000/svg" width="32" height="32" viewBox="0 0 32 32">
<title>godTime</title>
<path d="M9.631 26.641l-5.15 1.381c-0.459 0.122-0.878-0.297-0.753-0.753l1.381-5.15c0.122-0.459 0.694-0.613 1.031-0.275l3.766 3.766c0.338 0.334 0.181 0.906-0.275 1.031z"></path>
<path d="M27.794 4.284c0 0-8.191-1.219-10.828 1.419l-2.416 2.416c-1.069-0.278-3.466-0.281-3.85 0.103l-5.484 5.484c-0.466 0.466-0.466 1.225 0 1.691l2.553 0.603c-0.725 2.309-0.197 4.919 1.597 6.712 1.778 1.778 4.35 2.316 6.644 1.622l0.672 2.531c0.466 0.466 1.225 0.466 1.691 0l5.484-5.484c0.384-0.384 0.381-2.781 0.103-3.85l2.416-2.416c2.641-2.641 1.419-10.831 1.419-10.831zM17.516 10.769c1.097-1.609 3.425-1.609 4.522 0 0.609 0.894 0.609 2.125 0 3.019-1.097 1.609-3.425 1.609-4.522 0-0.609-0.894-0.609-2.125 0-3.019z"></path>
</svg>
