<!-- Generated by IcoMoon.io -->
<svg version="1.1" xmlns="http://www.w3.org/2000/svg" width="32" height="32" viewBox="0 0 32 32">
<title>im</title>
<path d="M8.697 13.869c0 0.813 0.659 1.472 1.469 1.472 0.813 0 1.472-0.659 1.472-1.472s-0.659-1.469-1.472-1.469c-0.809-0.003-1.469 0.656-1.469 1.469z"></path>
<path d="M14.566 13.869c0 0.813 0.659 1.472 1.469 1.472 0.813 0 1.469-0.659 1.469-1.472s-0.659-1.469-1.469-1.469c-0.809-0.003-1.469 0.656-1.469 1.469z"></path>
<path d="M23.375 13.869c0-0.813-0.659-1.469-1.469-1.469-0.813 0-1.472 0.659-1.472 1.469 0 0.813 0.659 1.472 1.472 1.472 0.809-0.003 1.469-0.659 1.469-1.472z"></path>
<path d="M27.728 3.456h-23.462c-1.241 0-2.25 1.009-2.25 2.25v15.416c0 1.241 1.009 2.25 2.25 2.25h11.203l5.137 6.044c0.234 0.275 0.569 0.419 0.903 0.419 0.272 0 0.544-0.094 0.766-0.281 0.5-0.425 0.559-1.172 0.137-1.669l-5.85-6.884h-12.175v-15.172h23.222v15.172h-3.797c-0.653 0-1.184 0.531-1.184 1.184 0 0.656 0.531 1.184 1.184 1.184h3.916c1.241 0 2.25-1.009 2.25-2.25v-15.412c0-1.241-1.009-2.25-2.25-2.25z"></path>
</svg>
