<!-- Generated by IcoMoon.io -->
<svg version="1.1" xmlns="http://www.w3.org/2000/svg" width="32" height="32" viewBox="0 0 32 32">
<title>instrument</title>
<path d="M18.419 16.137c0 1.369-1.11 2.478-2.478 2.478s-2.478-1.11-2.478-2.478c0-1.369 1.11-2.478 2.478-2.478s2.478 1.11 2.478 2.478z"></path>
<path d="M16.45 17.344l-1.743-1.743 6.161-6.161 1.743 1.743-6.161 6.161z"></path>
<path d="M6.103 25.916c5.456 5.456 14.303 5.456 19.759 0 5.038-5.038 5.413-12.953 1.153-18.434l-1.878 1.878c3.238 4.434 2.869 10.7-1.131 14.703-4.425 4.425-11.622 4.425-16.047 0s-4.425-11.622 0-16.047c4.003-4.003 10.266-4.372 14.703-1.131l1.878-1.878c-5.484-4.263-13.403-3.888-18.438 1.15-5.456 5.456-5.456 14.303 0 19.759z"></path>
</svg>
