<!-- Generated by IcoMoon.io -->
<svg version="1.1" xmlns="http://www.w3.org/2000/svg" width="32" height="32" viewBox="0 0 32 32">
<title>lock</title>
<path d="M12.869 18.906l0.037 2.928 5.659-0.028-0.038-2.925z"></path>
<path d="M24.85 10.728h-0.216c-0.119-4.825-4.063-8.722-8.916-8.722-4.856 0-8.8 3.894-8.919 8.722h-0.216c-1.609 0-2.922 1.309-2.922 2.922v13.416c0 1.609 1.309 2.922 2.922 2.922h18.266c1.609 0 2.922-1.309 2.922-2.922v-13.416c0-1.613-1.313-2.922-2.922-2.922zM15.719 4.666c3.387 0 6.141 2.703 6.256 6.059h-12.516c0.119-3.356 2.869-6.059 6.259-6.059zM25.113 27.066c0 0.144-0.116 0.262-0.262 0.262h-18.266c-0.144 0-0.259-0.119-0.259-0.262v-13.416c0-0.144 0.116-0.262 0.259-0.262h18.266c0.144 0 0.262 0.119 0.262 0.262v13.416z"></path>
</svg>
