<!-- Generated by IcoMoon.io -->
<svg version="1.1" xmlns="http://www.w3.org/2000/svg" width="32" height="32" viewBox="0 0 32 32">
<title>tip</title>
<path d="M13.328 29.762c-5.647-1.041-10.181-5.634-11.15-11.297-0.781-4.569 0.638-9.041 3.781-12.256l2.078 2.031c-2.478 2.534-3.603 6.056-3.003 9.656 0.803 4.828 4.894 8.634 9.762 9.137 6.644 0.688 12.275-4.528 12.275-11.034 0-0.066-0.006-0.137-0.016-0.203-1.538-10.353-10.331-12.734-16.244-9.625l-1.353-2.572c1.994-1.050 4.247-1.606 6.516-1.606 7.722 0 14.006 6.281 14.006 14.006-0.003 8.591-7.772 15.397-16.653 13.762z"></path>
<path d="M14.675 22.206l-0.019-2.319 2.681-0.022 0.019 2.319z"></path>
<path d="M14.647 17.212l-0.034-6.803c0-0.194 0.156-0.353 0.35-0.353l1.975-0.009c0.194 0 0.353 0.156 0.353 0.35l0.034 6.803c0 0.194-0.156 0.353-0.35 0.353l-1.975 0.009c-0.194 0.003-0.35-0.153-0.353-0.35z"></path>
</svg>
