<?xml version="1.0" standalone="no"?><!DOCTYPE svg PUBLIC "-//W3C//DTD SVG 1.1//EN" "http://www.w3.org/Graphics/SVG/1.1/DTD/svg11.dtd"><svg t="1506073330444" class="icon" style="" viewBox="0 0 1024 1024" version="1.1" xmlns="http://www.w3.org/2000/svg" p-id="998" xmlns:xlink="http://www.w3.org/1999/xlink" width="200" height="200"><defs><style type="text/css"></style></defs><path d="M511.4481 66.2047C266.1325 66.2047 66.5426 265.7946 66.5426 511.1112c0 245.3176 199.5899 444.9065 444.9065 444.9065 245.3176 0 444.9065-199.5889 444.9065-444.9065C956.3556 265.7946 756.7667 66.2047 511.4481 66.2047zM511.4481 900.4032C296.789 900.4032 122.156 725.7723 122.156 511.1112 122.156 296.4511 296.789 121.8181 511.4481 121.8181c214.6601 0 389.2941 174.633 389.2941 389.2931C900.7421 725.7723 726.1082 900.4032 511.4481 900.4032zM678.2884 483.3044H539.2568319999999V344.270848c0-15.3692-12.4375-27.8057-27.8077-27.8057-15.3702 0-27.8067 12.4375-27.8067 27.8057v139.0336H344.61081600000006c-15.3723 0-27.8077 12.4375-27.8077 27.8067 0 15.3416 12.4365 27.8057 27.8077 27.8057h139.030528v139.0336c0 15.3416 12.4375 27.8057 27.8067 27.8057 15.3713 0 27.8077-12.4641 27.8077-27.8057V538.9168639999999h139.031552c15.3713 0 27.8077-12.4641 27.8077-27.8057C706.0961 495.7409 693.6596 483.3044 678.2884 483.3044z" p-id="999"></path></svg>