<?xml version="1.0" encoding="UTF-8"?>
<svg width="18px" height="17px" viewBox="0 0 18 17" version="1.1" xmlns="http://www.w3.org/2000/svg" xmlns:xlink="http://www.w3.org/1999/xlink">
    <!-- Generator: Sketch 47.1 (45422) - http://www.bohemiancoding.com/sketch -->
    <title>Combined Shape</title>
    <desc>Created with Sketch.</desc>
    <defs></defs>
    <g id="Page-1" stroke="none" stroke-width="1" fill="none" fill-rule="evenodd">
        <g id="iPhone-8" transform="translate(-123.000000, -2029.000000)" fill="#000000">
            <g id="Group-4-Copy" transform="translate(0.000000, 2020.000000)">
                <g id="分类" transform="translate(123.000000, 9.000000)">
                    <path d="M1.26671183,0.506215746 L6.88661785,0.506215746 C7.4389026,0.506215746 7.88661785,0.953930996 7.88661785,1.50621575 L7.88661785,6.48776489 C7.88661785,7.04004964 7.4389026,7.48776489 6.88661785,7.48776489 L1.26671183,7.48776489 L1.26671183,7.48776489 C0.714427078,7.48776489 0.266711828,7.04004964 0.266711828,6.48776489 L0.266711828,1.50621575 L0.266711828,1.50621575 C0.266711828,0.953930996 0.714427078,0.506215746 1.26671183,0.506215746 L1.26671183,0.506215746 Z M1.26671183,9.5246666 L6.88661785,9.5246666 C7.4389026,9.5246666 7.88661785,9.97238185 7.88661785,10.5246666 L7.88661785,15.5062157 C7.88661785,16.0585005 7.4389026,16.5062157 6.88661785,16.5062157 L1.26671183,16.5062157 L1.26671183,16.5062157 C0.714427078,16.5062157 0.266711828,16.0585005 0.266711828,15.5062157 L0.266711828,10.5246666 C0.266711828,9.97238185 0.714427078,9.5246666 1.26671183,9.5246666 L1.26671183,9.5246666 Z M11.1133821,0.506215746 L16.7332882,0.506215746 C17.2855729,0.506215746 17.7332882,0.953930996 17.7332882,1.50621575 L17.7332882,6.48776489 C17.7332882,7.04004964 17.2855729,7.48776489 16.7332882,7.48776489 L11.1133821,7.48776489 L11.1133821,7.48776489 C10.5610974,7.48776489 10.1133821,7.04004964 10.1133821,6.48776489 L10.1133821,1.50621575 L10.1133821,1.50621575 C10.1133821,0.953930996 10.5610974,0.506215746 11.1133821,0.506215746 L11.1133821,0.506215746 Z M11.1133821,9.5246666 L16.7332882,9.5246666 C17.2855729,9.5246666 17.7332882,9.97238185 17.7332882,10.5246666 L17.7332882,15.5062157 C17.7332882,16.0585005 17.2855729,16.5062157 16.7332882,16.5062157 L11.1133821,16.5062157 L11.1133821,16.5062157 C10.5610974,16.5062157 10.1133821,16.0585005 10.1133821,15.5062157 L10.1133821,10.5246666 C10.1133821,9.97238185 10.5610974,9.5246666 11.1133821,9.5246666 Z" id="Combined-Shape"></path>
                </g>
            </g>
        </g>
    </g>
</svg>