<!-- Generated by IcoMoon.io -->
<svg version="1.1" xmlns="http://www.w3.org/2000/svg" width="32" height="32" viewBox="0 0 32 32">
<title>close-1</title>
<path d="M17.416 16.039l8.29-8.247c0.392-0.39 0.394-1.022 0.004-1.414-0.391-0.393-1.022-0.394-1.414-0.004l-8.292 8.248-8.22-8.245c-0.389-0.39-1.022-0.392-1.414-0.002s-0.392 1.023-0.002 1.415l8.218 8.243-8.286 8.242c-0.392 0.39-0.394 1.022-0.004 1.414 0.195 0.196 0.452 0.295 0.709 0.295 0.255 0 0.51-0.097 0.705-0.291l8.288-8.244 8.295 8.32c0.195 0.196 0.451 0.294 0.708 0.294 0.256 0 0.511-0.098 0.706-0.292 0.391-0.39 0.392-1.022 0.002-1.414l-8.293-8.318z"></path>
</svg>
