<?xml version="1.0" standalone="no"?><!DOCTYPE svg PUBLIC "-//W3C//DTD SVG 1.1//EN" "http://www.w3.org/Graphics/SVG/1.1/DTD/svg11.dtd"><svg t="1506073370386" class="icon" style="" viewBox="0 0 1024 1024" version="1.1" xmlns="http://www.w3.org/2000/svg" p-id="1820" xmlns:xlink="http://www.w3.org/1999/xlink" width="200" height="200"><defs><style type="text/css"></style></defs><path d="M512 146.140405c49.426713 0 97.331769 9.662057 142.383848 28.717042 43.556005 18.422581 82.691327 44.813648 116.318192 78.440513 33.625842 33.626865 60.017932 72.761164 78.440513 116.318192 19.056008 45.052079 28.717042 92.957135 28.717042 142.383848s-9.662057 97.331769-28.717042 142.383848c-18.422581 43.556005-44.813648 82.691327-78.440513 116.318192-33.626865 33.625842-72.761164 60.017932-116.318192 78.440513-45.052079 19.056008-92.957135 28.717042-142.383848 28.717042-49.426713 0-97.331769-9.662057-142.383848-28.717042-43.556005-18.422581-82.691327-44.813648-116.318192-78.440513-33.625842-33.626865-60.017932-72.761164-78.440513-116.318192-19.056008-45.052079-28.717042-92.957135-28.717042-142.383848s9.662057-97.331769 28.717042-142.383848c18.422581-43.556005 44.813648-82.691327 78.440513-116.318192 33.626865-33.625842 72.761164-60.017932 116.318192-78.440513C414.668231 155.802462 462.573287 146.140405 512 146.140405M512 64.275909c-247.27171 0-447.724091 200.452381-447.724091 447.724091s200.453405 447.724091 447.724091 447.724091 447.724091-200.453405 447.724091-447.724091S759.27171 64.275909 512 64.275909L512 64.275909z" p-id="1821"></path><path d="M692.613544 552.677445c22.606881 0 40.932248-18.325367 40.932248-40.932248s-18.325367-40.932248-40.932248-40.932248L330.798055 470.812949c-22.606881 0-40.932248 18.325367-40.932248 40.932248 0 11.30344 4.581342 21.536502 11.989055 28.943193 7.407714 7.40669 17.639752 11.989055 28.943193 11.989055L692.613544 552.677445z" p-id="1822"></path></svg>