<?xml version="1.0" encoding="UTF-8"?>
<svg width="16px" height="17px" viewBox="0 0 16 17" version="1.1" xmlns="http://www.w3.org/2000/svg" xmlns:xlink="http://www.w3.org/1999/xlink">
    <!-- Generator: Sketch 47.1 (45422) - http://www.bohemiancoding.com/sketch -->
    <title>Combined Shape</title>
    <desc>Created with Sketch.</desc>
    <defs></defs>
    <g id="Page-1" stroke="none" stroke-width="1" fill="none" fill-rule="evenodd">
        <g id="iPhone-8" transform="translate(-224.000000, -2029.000000)" fill="#000000">
            <g id="Group-4-Copy" transform="translate(0.000000, 2020.000000)">
                <g id="微需求" transform="translate(224.000000, 9.000000)">
                    <path d="M1.5,0 L14.5,0 C15.0522847,-1.01453063e-16 15.5,0.44771525 15.5,1 L15.5,16 C15.5,16.5522847 15.0522847,17 14.5,17 L1.5,17 C0.94771525,17 0.5,16.5522847 0.5,16 L0.5,1 L0.5,1 C0.5,0.44771525 0.94771525,1.01453063e-16 1.5,0 L1.5,0 Z M4,4 C3.44771525,4 3,4.44771525 3,5 C3,5.55228475 3.44771525,6 4,6 L12,6 C12.5522847,6 13,5.55228475 13,5 C13,4.44771525 12.5522847,4 12,4 L4,4 Z M4,8 C3.44771525,8 3,8.44771525 3,9 C3,9.55228475 3.44771525,10 4,10 L8,10 C8.55228475,10 9,9.55228475 9,9 C9,8.44771525 8.55228475,8 8,8 L4,8 Z" id="Combined-Shape"></path>
                </g>
            </g>
        </g>
    </g>
</svg>