<?xml version="1.0" standalone="no"?><!DOCTYPE svg PUBLIC "-//W3C//DTD SVG 1.1//EN" "http://www.w3.org/Graphics/SVG/1.1/DTD/svg11.dtd"><svg t="1513244655405" class="icon" style="" viewBox="0 0 1024 1024" version="1.1" xmlns="http://www.w3.org/2000/svg" p-id="1088" xmlns:xlink="http://www.w3.org/1999/xlink" width="200" height="200"><defs><style type="text/css"></style></defs><path d="M190.187597 159.041226c-13.180184-13.180184-34.593889-13.180184-47.774073 0-13.241582 13.180184-13.241582 34.595936 0 47.774073l47.774073 47.77305c13.178137 13.241582 34.593889 13.241582 47.77305 0 13.180184-13.180184 13.180184-34.532491 0-47.77305l-47.77305-47.774073zM832.235488 159.041226l-47.774073 47.774073c-13.180184 13.240559-13.180184 34.593889 0 47.77305 13.180184 13.241582 34.593889 13.241582 47.774073 0l47.77305-47.77305c13.180184-13.180184 13.180184-34.593889 0-47.774073-13.178137-13.179161-34.593889-13.179161-47.77305 0zM105.715717 426.477184H38.109969c-18.628266 0-33.771151 15.142885-33.771151 33.771152 0 18.691711 15.142885 33.834596 33.771151 33.834596h67.605748c18.628266 0 33.771151-15.142885 33.771151-33.834596-0.001023-18.627243-15.143908-33.771151-33.771151-33.771152zM984.299813 426.477184h-67.604724c-18.628266 0-33.771151 15.142885-33.771151 33.771152 0 18.691711 15.143908 33.834596 33.771151 33.834596h67.604724c18.628266 0 33.771151-15.142885 33.771151-33.834596 0.001023-18.627243-15.142885-33.771151-33.771151-33.771152zM477.41839 37.864376v67.604724c0 18.628266 15.142885 33.771151 33.771151 33.771151 18.691711 0 33.835619-15.143908 33.83562-33.771151V37.864376c0-18.628266-15.142885-33.771151-33.83562-33.771151-18.629289 0-33.771151 15.142885-33.771151 33.771151zM443.621657 992.500589c0 14.001899 15.142885 25.344225 33.771151 25.344224h67.604724c18.691711 0 33.771151-11.341303 33.771151-25.344224 0-14.001899-15.07944-25.344225-33.771151-25.344225h-67.604724c-18.628266 0-33.771151 11.342326-33.771151 25.344225zM376.047632 891.12369c0 14.002922 15.142885 25.344225 33.771151 25.344225h202.752773c18.691711 0 33.835619-11.342326 33.83562-25.344225 0-14.002922-15.142885-25.343201-33.83562-25.343201H409.818783c-18.628266 0-33.771151 11.341303-33.771151 25.343201zM511.207961 201.841008c-167.968549 0-304.129672 136.162146-304.129672 304.129672 0 168.029948 136.162146 304.192094 304.129672 304.192094s304.129672-136.162146 304.129672-304.192094c0-167.968549-136.161123-304.129672-304.129672-304.129672z m0 557.190225c-139.77237 0-253.060553-113.288183-253.060553-253.060553 0-139.709949 113.288183-252.998131 253.060553-252.998131s253.060553 113.289206 253.060553 252.998131c0 139.77237-113.288183 253.060553-253.060553 253.060553z" p-id="1089"></path></svg>