<?xml version="1.0" standalone="no"?><!DOCTYPE svg PUBLIC "-//W3C//DTD SVG 1.1//EN" "http://www.w3.org/Graphics/SVG/1.1/DTD/svg11.dtd"><svg t="1503977614397" class="icon" style="" viewBox="0 0 1024 1024" version="1.1" xmlns="http://www.w3.org/2000/svg" p-id="1384" xmlns:xlink="http://www.w3.org/1999/xlink" width="16" height="16"><defs><style type="text/css"></style></defs><path d="M514.424724 509.953388m-165.775604 0a162 162 0 1 0 331.551208 0 162 162 0 1 0-331.551208 0Z" p-id="1385"></path><path d="M514.424724 879.366925c-49.861618 0-98.242512-9.770528-143.79908-29.039383-43.991933-18.606777-83.496669-45.240367-117.4162-79.159898-33.919531-33.918507-60.553121-73.424266-79.159898-117.4162-19.268856-45.556569-29.03836-93.936439-29.03836-143.798057s9.769504-98.242512 29.03836-143.798057c18.606777-43.991933 45.240367-83.496669 79.159898-117.4162 33.919531-33.919531 73.424266-60.553121 117.4162-79.159898 45.556569-19.268856 93.937462-29.03836 143.79908-29.03836 49.861618 0 98.242512 9.769504 143.798057 29.03836 43.991933 18.606777 83.496669 45.240367 117.4162 79.159898 33.918507 33.919531 60.553121 73.424266 79.158874 117.4162 19.268856 45.556569 29.039383 93.936439 29.039383 143.798057s-9.770528 98.241488-29.039383 143.79908c-18.606777 43.99091-45.240367 83.496669-79.158874 117.415177-33.919531 33.919531-73.424266 60.554144-117.4162 79.159898C612.667236 869.596398 564.286342 879.366925 514.424724 879.366925zM514.424724 181.472098c-87.74032 0-170.230056 34.168194-232.272088 96.210225s-96.210225 144.530744-96.210225 232.271064c0 87.74032 34.168194 170.229033 96.210225 232.271064 62.042032 62.043055 144.531767 96.211249 232.272088 96.211249s170.229033-34.168194 232.270041-96.211249c62.043055-62.042032 96.211249-144.530744 96.211249-232.271064 0-87.74032-34.168194-170.230056-96.211249-232.271064C684.653757 215.639269 602.165044 181.472098 514.424724 181.472098z" p-id="1386"></path></svg>