<!-- Generated by IcoMoon.io -->
<svg version="1.1" xmlns="http://www.w3.org/2000/svg" width="32" height="32" viewBox="0 0 32 32">
<title>godAdress</title>
<path d="M15.563 19.781c0.103 0.153 0.275 0.244 0.462 0.244 0.184 0 0.359-0.091 0.462-0.244l5.253-7.809c0.628-1 0.959-2.147 0.959-3.319 0-3.541-2.994-6.422-6.675-6.422s-6.675 2.881-6.675 6.422c0 1.175 0.334 2.325 0.972 3.338l5.241 7.791zM16.022 5.566c1.844 0 3.337 1.494 3.337 3.337s-1.494 3.338-3.337 3.338-3.338-1.494-3.338-3.338c0-1.844 1.497-3.338 3.338-3.338v0z"></path>
<path d="M4.009 13.797v15.128l7.119-0.891v-11.656l-2.153-3.2-4.966 0.619z"></path>
<path d="M16.022 21.806c-0.778 0-1.5-0.384-1.938-1.031l-1.622-2.413v9.672l7.119 0.891v-10.563l-1.622 2.409c-0.434 0.65-1.159 1.034-1.938 1.034v0z"></path>
<path d="M22.813 13.559l-1.897 2.822v12.544l7.119-0.891v-15.128l-5.222 0.653z"></path>
</svg>
