<?xml version="1.0" standalone="no"?><!DOCTYPE svg PUBLIC "-//W3C//DTD SVG 1.1//EN" "http://www.w3.org/Graphics/SVG/1.1/DTD/svg11.dtd"><svg t="1512024828424" class="icon" style="" viewBox="0 0 1024 1024" version="1.1" xmlns="http://www.w3.org/2000/svg" p-id="1964" xmlns:xlink="http://www.w3.org/1999/xlink" width="200" height="200"><defs><style type="text/css"></style></defs><path d="M511.998 139.333c-206.387 0-373.698 167.312-373.698 373.698 0 206.385 167.311 373.698 373.698 373.698s373.701-167.314 373.701-373.698c0-206.385-167.312-373.698-373.701-373.698zM511.998 836.908c-178.87 0-323.872-145.004-323.872-323.873 0-178.87 145.004-323.873 323.872-323.873s323.872 145.004 323.872 323.873c0 178.87-145.003 323.873-323.872 323.873zM673.934 537.947h-161.936v-161.938c0-6.884-5.571-12.457-12.457-12.457h-24.913c-6.885 0-12.457 5.573-12.457 12.457v199.306c0 6.884 5.571 12.455 12.457 12.455h199.307c6.885 0 12.457-5.571 12.457-12.455v-24.913c-0.001-6.884-5.573-12.455-12.458-12.455z" p-id="1965"></path></svg>