<?xml version="1.0" standalone="no"?><!DOCTYPE svg PUBLIC "-//W3C//DTD SVG 1.1//EN" "http://www.w3.org/Graphics/SVG/1.1/DTD/svg11.dtd"><svg t="1498551893374" class="icon" style="" viewBox="0 0 1000 1000" version="1.1" xmlns="http://www.w3.org/2000/svg" p-id="1002" xmlns:xlink="http://www.w3.org/1999/xlink" width="200" height="200"><defs><style type="text/css"></style></defs><path d="M956.47 450.885l-412.266-412.249c-8.216-8.217-19.010-12.276-29.777-12.192-10.767-0.084-21.561 3.975-29.776 12.192l-412.266 412.249c-16.265 16.264-16.265 42.625 0 58.89 8.116 8.115 18.747 12.179 29.386 12.193v0.14h41.266c22.791 0 41.266 18.482 41.266 41.271v288.846c0 45.582 36.952 82.527 82.533 82.527h123.795c45.582 0 82.533-36.946 82.533-82.527v-123.793c0-22.781 18.474-41.258 41.264-41.258 22.791 0 41.266 18.475 41.266 41.258v123.793c0 45.582 36.952 82.527 82.53 82.527h123.797c45.58 0 82.53-36.946 82.53-82.527v-288.846c0-22.788 18.474-41.271 41.266-41.271h41.266v-0.14c10.638-0.016 21.272-4.078 29.387-12.194 16.266-16.262 16.266-42.624 0.001-58.889zM762.020 522.108v288.853c0 22.792-18.474 41.262-41.266 41.262h-41.266c-22.789 0-41.266-18.469-41.266-41.262v-123.789c0-45.582-36.952-82.531-82.53-82.531h-82.529c-45.582 0-82.533 36.951-82.533 82.531v123.789c0 22.792-18.474 41.262-41.266 41.262h-41.266c-22.789 0-41.264-18.469-41.264-41.262v-288.853c0-40.213-28.78-73.697-66.866-81.020l314.461-314.446 314.46 314.446c-38.086 7.321-66.866 40.807-66.866 81.020z" fill="#515151" p-id="1003"></path></svg>