<?xml version="1.0" encoding="UTF-8"?>
<svg width="18px" height="18px" viewBox="0 0 18 18" version="1.1" xmlns="http://www.w3.org/2000/svg" xmlns:xlink="http://www.w3.org/1999/xlink">
    <!-- Generator: Sketch 47.1 (45422) - http://www.bohemiancoding.com/sketch -->
    <title>Combined Shape</title>
    <desc>Created with Sketch.</desc>
    <defs></defs>
    <g id="Page-1" stroke="none" stroke-width="1" fill="none" fill-rule="evenodd">
        <g id="iPhone-8" transform="translate(-329.000000, -2028.000000)" fill="#000000">
            <g id="Group-4-Copy" transform="translate(0.000000, 2020.000000)">
                <g id="我的" transform="translate(329.000000, 8.000000)">
                    <path d="M6.74650974,9.58106744 C5.32203644,8.73320053 4.36762011,7.17805839 4.36762011,5.40000037 C4.36762011,2.71470025 6.54448597,0.537834384 9.2297861,0.537834384 C11.9150862,0.537834384 14.0919521,2.71470025 14.0919521,5.40000037 C14.0919521,7.1778278 13.1377833,8.73279716 11.7136167,9.58073753 C15.0730377,10.5699206 17.5945991,13.5150927 17.9603385,17.0982915 C17.9905975,17.3947427 17.7726849,18.0023349 17.1648983,18.0000004 C10.1469835,18.0000004 4.84950754,18.0000004 1.27247047,18.0000004 C0.497346166,18.0000004 0.491241511,17.1962166 0.497346166,17.1339036 C0.849920167,13.5350154 3.37652617,10.5738518 6.74650974,9.58106744 Z M6.95164419,7.66122222 C7.32795451,8.42634151 8.08733515,8.80890116 9.2297861,8.80890116 C10.3722371,8.80890116 11.1316177,8.42634151 11.507928,7.66122222 L6.95164419,7.66122222 Z" id="Combined-Shape"></path>
                </g>
            </g>
        </g>
    </g>
</svg>