<?xml version="1.0" encoding="UTF-8"?>
<svg width="16px" height="18px" viewBox="0 0 16 18" version="1.1" xmlns="http://www.w3.org/2000/svg" xmlns:xlink="http://www.w3.org/1999/xlink">
    <!-- Generator: Sketch 47.1 (45422) - http://www.bohemiancoding.com/sketch -->
    <title>扶뒬못</title>
    <desc>Created with Sketch.</desc>
    <defs></defs>
    <g id="Page-1" stroke="none" stroke-width="1" fill="none" fill-rule="evenodd">
        <g id="iPhone-8" transform="translate(-36.000000, -2029.000000)" fill="#000000">
            <g id="Group-4-Copy" transform="translate(0.000000, 2020.000000)">
                <g id="扶뒬못" transform="translate(36.000000, 9.000000)">
                    <path d="M7.14438382,0.286024987 L7.14438382,0.286024987 C7.50998997,-0.00905811419 8.03171536,-0.0098319019 8.3981952,0.284165419 L8.3981952,0.284165419 L14.9767243,5.56159064 C15.213313,5.75138675 15.3509741,6.03830446 15.3509741,6.34161416 L15.3509741,16.038449 C15.3509741,16.5907337 14.9032589,17.038449 14.3509741,17.038449 L14.3509741,17.038449 L1.23600653,17.038449 C0.68372178,17.038449 0.23600653,16.5907337 0.23600653,16.038449 L0.23600653,16.038449 L0.23600653,6.33979091 C0.23600653,6.03752095 0.372729753,5.75147098 0.607945343,5.56162695 L7.14438382,0.286024987 Z M6.78258264,11.7888302 C6.23029789,11.7888302 5.78258264,12.2365455 5.78258264,12.7888302 L5.78258264,17.038449 L9.804398,17.038449 L9.804398,12.7888302 C9.804398,12.2365455 9.35668275,11.7888302 8.804398,11.7888302 L6.78258264,11.7888302 Z"></path>
                </g>
            </g>
        </g>
    </g>
</svg>