<?xml version="1.0" encoding="utf-8"?>
<!-- Generator: Adobe Illustrator 19.0.0, SVG Export Plug-In . SVG Version: 6.00 Build 0)  -->
<svg version="1.1" id="图层_1" xmlns="http://www.w3.org/2000/svg" xmlns:xlink="http://www.w3.org/1999/xlink" x="0px" y="0px"
	 viewBox="0 0 1024 1024" style="enable-background:new 0 0 1024 1024;" xml:space="preserve">
<style type="text/css">
	.st0{fill:#231815;}
</style>
<g id="XMLID_529_">
	<path id="XMLID_526_" class="st0" d="M906.6,217.7H116.9c-29.1,0-52.7-23.6-52.7-52.7s23.6-52.7,52.7-52.7h789.7
		c29.1,0,52.7,23.6,52.7,52.7S935.7,217.7,906.6,217.7z"/>
</g>
<g id="XMLID_530_">
	<path id="XMLID_525_" class="st0" d="M906.6,567.3H116.9c-29.1,0-52.7-23.6-52.7-52.7c0-29.1,23.6-52.7,52.7-52.7h789.7
		c29.1,0,52.7,23.6,52.7,52.7C959.3,543.7,935.7,567.3,906.6,567.3z"/>
</g>
<g id="XMLID_531_">
	<path id="XMLID_524_" class="st0" d="M906.6,916.9H116.9c-29.1,0-52.7-23.6-52.7-52.7c0-29.1,23.6-52.7,52.7-52.7h789.7
		c29.1,0,52.7,23.6,52.7,52.7C959.3,893.3,935.7,916.9,906.6,916.9z"/>
</g>
</svg>
