<?xml version="1.0" standalone="no"?><!DOCTYPE svg PUBLIC "-//W3C//DTD SVG 1.1//EN" "http://www.w3.org/Graphics/SVG/1.1/DTD/svg11.dtd"><svg t="1498629194264" class="icon" style="" viewBox="0 0 1025 1024" version="1.1" xmlns="http://www.w3.org/2000/svg" p-id="792" xmlns:xlink="http://www.w3.org/1999/xlink" width="200.1953125" height="200"><defs><style type="text/css"></style></defs><path d="M938.602025 736.846507c35.275057 42.328021 19.203262 106.356292 7.028404 118.796198-12.176905 12.632298-11.296819 18.694654-69.665934 71.65636-58.74571 53.396632-176.239177 16.883316-229.586688 0-53.350581-16.94574-198.332395-109.668893-332.397054-237.09914-135.819714-129.118783-206.04747-289.995351-234.79659-377.406266-28.683625-87.662661-10.730904-119.300713 0-148.939128 10.734997-29.635346 30.375232-54.770998 88.560143-88.164105 58.053922-33.450414 79.078756-7.998545 94.016673 0 14.878563 7.883929 79.897441 64.780436 102.431724 118.554687 22.407387 53.770157 11.736862 88.346262-5.58752 104.665709-17.255817 16.319447-29.558594 31.265551-43.870218 41.392675-14.309577 9.94292-17.321312 24.385533-15.187616 52.270941 2.00987 27.94988 102.870743 136.994525 122.763747 157.129041 19.834672 20.192847 151.134225 156.00335 196.69912 166.443621 45.631412 10.25402 62.13711-9.566325 67.095266-14.943034 4.960203-5.314284 22.909855-29.763265 43.244948-46.770407 20.461989-16.884339 75.065157-12.25468 88.55605-2.750779C831.401465 661.190874 903.327991 694.328141 938.602025 736.846507z" p-id="793"></path></svg>