<!-- Generated by IcoMoon.io -->
<svg version="1.1" xmlns="http://www.w3.org/2000/svg" width="32" height="32" viewBox="0 0 32 32">
<title>set</title>
<path d="M27.772 12.787h-1.363c-0.203-0.666-0.472-1.3-0.794-1.903l0.969-0.969c0.419-0.419 0.647-0.975 0.647-1.569 0-0.591-0.231-1.15-0.647-1.566l-1.397-1.397c-0.834-0.834-2.297-0.834-3.134 0l-0.969 0.969c-0.603-0.322-1.241-0.591-1.903-0.794v-1.362c0-1.222-0.994-2.216-2.216-2.216h-1.975c-1.222 0-2.216 0.994-2.216 2.216v1.362c-0.666 0.203-1.3 0.472-1.903 0.794l-0.969-0.969c-0.863-0.859-2.269-0.862-3.131 0l-1.397 1.397c-0.859 0.862-0.859 2.269 0 3.131l0.969 0.969c-0.322 0.603-0.591 1.241-0.794 1.903h-1.362c-1.222 0-2.216 0.994-2.216 2.216v1.975c0 1.222 0.994 2.216 2.216 2.216h1.362c0.203 0.666 0.472 1.3 0.794 1.903l-0.969 0.969c-0.419 0.419-0.647 0.975-0.647 1.566 0 0.594 0.231 1.15 0.647 1.566l1.397 1.397c0.419 0.419 0.975 0.647 1.566 0.647 0.594 0 1.15-0.231 1.566-0.647l0.969-0.969c0.603 0.322 1.241 0.591 1.903 0.794v1.366c0 1.222 0.994 2.216 2.216 2.216h1.975c1.222 0 2.216-0.994 2.216-2.216v-1.363c0.666-0.203 1.3-0.472 1.906-0.794l0.969 0.969c0.431 0.431 0.997 0.647 1.566 0.647s1.134-0.216 1.566-0.647l1.397-1.397c0.863-0.866 0.863-2.269 0-3.134l-0.969-0.969c0.322-0.603 0.591-1.241 0.794-1.903h1.366c1.222 0 2.216-0.994 2.216-2.216v-1.975c-0.003-1.219-0.997-2.213-2.219-2.213zM27.656 16.859h-3.144c-0.081 0.816-0.284 1.597-0.581 2.331-0.022 0.053-0.041 0.109-0.063 0.159-0.319 0.744-0.741 1.434-1.244 2.053l2.225 2.225-1.231 1.231-2.241-2.216c-0.616 0.5-1.3 0.919-2.038 1.234-0.053 0.022-0.106 0.041-0.159 0.063-0.734 0.297-1.516 0.5-2.331 0.581v3.141h-1.741v-3.141c-0.816-0.084-1.597-0.284-2.331-0.581-0.053-0.022-0.106-0.041-0.159-0.063-0.744-0.319-1.434-0.741-2.053-1.244l-2.225 2.225-1.231-1.231 2.225-2.225c-0.506-0.622-0.928-1.309-1.247-2.053-0.022-0.053-0.041-0.106-0.063-0.159-0.297-0.734-0.5-1.516-0.581-2.331h-3.141v-1.741h3.141c0.084-0.816 0.284-1.597 0.581-2.331 0.022-0.053 0.041-0.109 0.063-0.159 0.319-0.744 0.741-1.434 1.244-2.053l-2.225-2.225 1.231-1.231 2.241 2.216c0.616-0.5 1.3-0.919 2.041-1.234 0.053-0.022 0.106-0.041 0.159-0.063 0.734-0.297 1.516-0.5 2.331-0.581v-3.141h1.741v3.141c0.816 0.084 1.597 0.284 2.331 0.581 0.053 0.022 0.106 0.041 0.159 0.063 0.744 0.319 1.434 0.741 2.053 1.244l2.225-2.225 1.231 1.231-2.225 2.225c0.506 0.619 0.925 1.309 1.244 2.053 0.022 0.053 0.041 0.106 0.063 0.159 0.297 0.734 0.5 1.516 0.581 2.331h3.144v1.741z"></path>
<path d="M15.978 11.519c-2.466 0-4.469 2.006-4.469 4.469s2.003 4.469 4.469 4.469 4.469-2.006 4.469-4.469-2.003-4.469-4.469-4.469zM15.978 18.125c-1.178 0-2.138-0.959-2.138-2.137s0.959-2.137 2.137-2.137 2.137 0.959 2.137 2.137-0.959 2.137-2.137 2.137z"></path>
</svg>
