<!-- Generated by IcoMoon.io -->
<svg version="1.1" xmlns="http://www.w3.org/2000/svg" width="32" height="32" viewBox="0 0 32 32">
<title>share-1</title>
<path d="M24.023 21.986c-1.113 0-2.123 0.462-2.849 1.199l-9.66-5.365c0.285-0.548 0.457-1.161 0.457-1.822 0-0.392-0.075-0.763-0.177-1.123l9.52-5.913c0.71 0.64 1.639 1.037 2.661 1.037 2.204 0 3.999-1.795 3.999-3.999s-1.795-3.999-3.999-3.999-3.999 1.795-3.999 3.999c0 0.457 0.091 0.887 0.231 1.295l-9.434 5.854c-0.72-0.71-1.709-1.156-2.806-1.156-2.204 0-3.999 1.795-3.999 3.999s1.795 3.999 3.999 3.999c0.801 0 1.548-0.242 2.172-0.65l10.036 5.574c-0.097 0.344-0.161 0.693-0.161 1.064 0 2.204 1.795 3.999 3.999 3.999s3.999-1.795 3.999-3.999-1.785-3.994-3.989-3.994zM23.974 3.999c1.102 0 2 0.898 2 2s-0.898 2-2 2-2-0.898-2-2 0.898-2 2-2zM5.972 15.997c0-1.102 0.898-2 2-2s2 0.898 2 2-0.898 2-2 2-2-0.898-2-2zM24.023 27.985c-1.102 0-2-0.898-2-2s0.898-2 2-2 2 0.898 2 2c0 1.107-0.898 2-2 2z"></path>
</svg>
