<?xml version="1.0" standalone="no"?><!DOCTYPE svg PUBLIC "-//W3C//DTD SVG 1.1//EN" "http://www.w3.org/Graphics/SVG/1.1/DTD/svg11.dtd"><svg t="1505355524984" class="icon" style="" viewBox="0 0 1024 1024" version="1.1" xmlns="http://www.w3.org/2000/svg" p-id="1296" xmlns:xlink="http://www.w3.org/1999/xlink" width="200" height="200"><defs><style type="text/css"></style></defs><path d="M784.505417 718.555379c68.75799-69.348438 111.234407-164.797323 111.234407-270.171256 0-211.933877-171.805948-383.739824-383.739824-383.739824s-383.739824 171.805948-383.739824 383.739824c0 109.650329 45.99352 208.555943 119.736035 278.487665l218.900545 214.139102c0.001023 0.001023 0.001023 0.001023 0.002047 0.002047l0.016373 0.016373 0 0c11.540847 11.531638 27.479865 18.664082 45.083801 18.664082s33.542954-7.132444 45.083801-18.664082l0 0 0.016373-0.016373c0.001023-0.001023 0.001023-0.001023 0.002047-0.002047l218.971154-214.205617c2.826372-2.681062 5.610788-5.40715 8.354272-8.172123l0.079818-0.077771L784.505417 718.555379zM512 258.389932c104.930841 0 189.994192 85.063351 189.994192 189.994192s-85.063351 189.994192-189.994192 189.994192S322.005808 553.314964 322.005808 448.384124 407.069159 258.389932 512 258.389932z" p-id="1297"></path></svg>