<?xml version="1.0" standalone="no"?><!DOCTYPE svg PUBLIC "-//W3C//DTD SVG 1.1//EN" "http://www.w3.org/Graphics/SVG/1.1/DTD/svg11.dtd"><svg t="1508393493406" class="icon" style="" viewBox="0 0 1024 1024" version="1.1" xmlns="http://www.w3.org/2000/svg" p-id="7365" xmlns:xlink="http://www.w3.org/1999/xlink" width="200" height="200"><defs><style type="text/css"></style></defs><path d="M2.74944 511.88736C2.78528 230.99904 230.8864 2.88768 511.86688 2.74944c280.84736-0.14336 509.09184 227.87584 509.3888 508.86656 0.29184 281.20064-228.5056 510.00832-509.61408 509.63456C230.53824 1020.88192 2.7136 792.84224 2.74944 511.88736zM511.42656 481.88416c-68.36224-68.3776-135.9616-135.99744-202.70592-202.752-15.6416 15.63136-31.04256 31.02208-46.5152 46.48448 67.1488 67.13856 134.8352 134.81984 203.19744 203.17184-68.52608 68.5056-136.22272 136.17664-203.33056 203.264 15.74912 15.86688 31.25248 31.48288 48.22016 48.57856 67.21536-67.22048 134.86592-134.87616 203.20768-203.21792 67.20512 67.22048 134.82496 134.85568 201.76896 201.80992 15.744-15.74912 31.1552-31.16544 46.64832-46.66368-67.24096-67.22048-134.92736-134.88128-204.13952-204.07296 68.736-68.69504 136.58624-136.50944 203.5456-203.42784-15.36512-15.34464-30.7712-30.73536-46.63808-46.57664C647.76704 345.44128 580.31104 412.94848 511.42656 481.88416z" p-id="7366"></path></svg>