<?xml version="1.0" standalone="no"?><!DOCTYPE svg PUBLIC "-//W3C//DTD SVG 1.1//EN" "http://www.w3.org/Graphics/SVG/1.1/DTD/svg11.dtd"><svg t="1508393438825" class="icon" style="" viewBox="0 0 1024 1024" version="1.1" xmlns="http://www.w3.org/2000/svg" p-id="5059" xmlns:xlink="http://www.w3.org/1999/xlink" width="200" height="200"><defs><style type="text/css"></style></defs><path d="M512 61.18912c-249.65632 0-451.96288 202.30656-451.96288 451.96288S262.34368 965.12 512 965.12s451.96288-202.30656 451.96288-451.96288c0-249.5488-202.41408-451.968-451.96288-451.968z m0 850.76992c-220.27776 0-398.80704-178.52416-398.80704-398.80704S291.72224 114.35008 512 114.35008s398.80704 178.52416 398.80704 398.80704c-0.10752 220.27776-178.6368 398.80192-398.80704 398.80192z m0-624.78336c-20.76672 0-37.66272 16.896-37.66272 37.66272v244.8128c0 20.76672 16.896 37.66272 37.66272 37.66272s37.66272-16.896 37.66272-37.66272V324.8384c-0.10752-20.77184-16.896-37.66272-37.66272-37.66272z m0 376.63232c-20.76672 0-37.66272 16.896-37.66272 37.66272s16.896 37.66272 37.66272 37.66272 37.66272-16.896 37.66272-37.66272c-0.10752-20.76672-16.896-37.66272-37.66272-37.66272z" fill="" p-id="5060"></path></svg>