<?xml version="1.0" standalone="no"?><!DOCTYPE svg PUBLIC "-//W3C//DTD SVG 1.1//EN" "http://www.w3.org/Graphics/SVG/1.1/DTD/svg11.dtd"><svg t="1505355513788" class="icon" style="" viewBox="0 0 1024 1024" version="1.1" xmlns="http://www.w3.org/2000/svg" p-id="1187" xmlns:xlink="http://www.w3.org/1999/xlink" width="200" height="200"><defs><style type="text/css"></style></defs><path d="M512 0C230.4 0 0 230.4 0 512s230.4 512 512 512 512-230.4 512-512S793.6 0 512 0z m0 938.666667C277.333333 938.666667 85.333333 746.666667 85.333333 512S277.333333 85.333333 512 85.333333s426.666667 192 426.666667 426.666667-192 426.666667-426.666667 426.666667z" p-id="1188"></path><path d="M512 704c-34.133333 0-64 29.866667-64 64s29.866667 64 64 64 64-29.866667 64-64-29.866667-64-64-64zM512 168.021333c-36.778667 0-66.602667 29.824-66.602667 66.602667l25.216 344.149333c0 36.736 4.608 66.602667 41.386667 66.602667 36.736 0 41.429333-29.824 41.429333-66.602667l25.173334-344.149333c0-36.778667-29.866667-66.602667-66.602667-66.602667z" p-id="1189"></path></svg>