<?xml version="1.0" encoding="utf-8"?>
<!-- Generator: Adobe Illustrator 19.0.0, SVG Export Plug-In . SVG Version: 6.00 Build 0)  -->
<svg version="1.1" id="图层_1" xmlns="http://www.w3.org/2000/svg" xmlns:xlink="http://www.w3.org/1999/xlink" x="0px" y="0px"
	 viewBox="0 0 1024 1024" style="enable-background:new 0 0 1024 1024;" xml:space="preserve">
<g id="XMLID_533_">
	<path id="XMLID_565_" d="M894.7,68.9H114.9c-26.1,0-47.2,21.2-47.2,47.2v795.6c0,26.1,21.2,47.2,47.2,47.2h779.8
		c26.1,0,47.2-21.2,47.2-47.2V116.1C941.9,90.1,920.7,68.9,894.7,68.9z M879.2,131.6v111.7H130.4V131.6H879.2z M130.4,896.3V306
		h748.9v590.4H130.4z"/>
	<polygon id="XMLID_567_" points="310.5,606.3 354.8,650.7 480.3,525.2 480.3,805.6 543,805.6 543,525.2 668.5,650.7 712.8,606.3 
		511.6,405.2 	"/>
</g>
</svg>
