<?xml version="1.0" encoding="utf-8"?>
<!-- Generator: Adobe Illustrator 19.0.0, SVG Export Plug-In . SVG Version: 6.00 Build 0)  -->
<svg version="1.1" id="图层_1" xmlns="http://www.w3.org/2000/svg" xmlns:xlink="http://www.w3.org/1999/xlink" x="0px" y="0px"
	 viewBox="0 0 1024 1024" style="enable-background:new 0 0 1024 1024;" xml:space="preserve">
<g id="XMLID_532_">
	<path id="XMLID_548_" d="M253.3,453.2c0,33.3,27.1,60.5,60.5,60.5s60.5-27.1,60.5-60.5c0-33.3-27.1-60.5-60.5-60.5
		S253.3,419.9,253.3,453.2z"/>
	<path id="XMLID_555_" d="M451.3,453.2c0,33.3,27.1,60.5,60.5,60.5s60.5-27.1,60.5-60.5c0-33.3-27.1-60.5-60.5-60.5
		S451.3,419.9,451.3,453.2z"/>
	<path id="XMLID_556_" d="M770.3,453.2c0-33.3-27.1-60.5-60.5-60.5c-33.3,0-60.5,27.1-60.5,60.5c0,33.3,27.1,60.5,60.5,60.5
		C743.1,513.7,770.3,486.6,770.3,453.2z"/>
	<path id="XMLID_557_" d="M879.1,108.9H144.5c-44.8,0-81.3,36.5-81.3,81.3v482.6c0,44.8,36.5,81.3,81.3,81.3h345.7l157.6,185.4
		c9.2,10.8,22.5,16.9,36.6,16.9c11.4,0,22.4-4.1,31-11.4c9.7-8.3,15.7-19.9,16.7-32.6c1-12.8-3-25.2-11.2-34.9L537.8,661.9l-3.3-3.8
		h-5H159.2V204.8h705.3v453.3H756.5c-26.5,0-48,21.5-48,48c0,26.4,21.5,48,48,48h122.6c44.8,0,81.3-36.5,81.3-81.3V190.2
		C960.4,145.4,923.9,108.9,879.1,108.9z"/>
</g>
</svg>
