<?xml version="1.0" encoding="utf-8"?>
<!-- Generator: Adobe Illustrator 19.0.0, SVG Export Plug-In . SVG Version: 6.00 Build 0)  -->
<svg version="1.1" id="图层_1" xmlns="http://www.w3.org/2000/svg" xmlns:xlink="http://www.w3.org/1999/xlink" x="0px" y="0px"
	 viewBox="0 0 1024 1024" style="enable-background:new 0 0 1024 1024;" xml:space="preserve">
<g>
	<path d="M131.5,427h234.4c26.1,0,47.4-21.2,47.4-47.4V145.3c0-26.1-21.2-47.4-47.4-47.4H131.5c-26.1,0-47.4,21.3-47.4,47.4v234.4
		C84.1,405.8,105.3,427,131.5,427z M147,160.8h203.4v203.4H147V160.8z"/>
	<path d="M365.8,598.7H131.5c-26.1,0-47.4,21.3-47.4,47.4v234.4c0,26.1,21.2,47.4,47.4,47.4h234.4c26.1,0,47.4-21.2,47.4-47.4V646.1
		C413.2,620,391.9,598.7,365.8,598.7z M350.3,864.9H147V661.6h203.4V864.9z"/>
	<path d="M902,97.9H667.6c-26.1,0-47.4,21.3-47.4,47.4v234.4c0,26.1,21.2,47.4,47.4,47.4H902c26.1,0,47.4-21.2,47.4-47.4V145.3
		C949.3,119.2,928.1,97.9,902,97.9z M886.5,364.2H683.1V160.8h203.4V364.2z"/>
	<path d="M902,598.7H667.6c-26.1,0-47.4,21.3-47.4,47.4v234.4c0,26.1,21.2,47.4,47.4,47.4H902c26.1,0,47.4-21.2,47.4-47.4V646.1
		C949.3,620,928.1,598.7,902,598.7z M886.5,864.9H683.1V661.6h203.4V864.9z"/>
	<rect x="481.2" y="100.2" width="62.8" height="223.7"/>
	<polygon points="481.2,480.8 345,480.8 345,543.7 481.2,543.7 481.2,624.1 544,624.1 544,400.4 481.2,400.4 	"/>
	<rect x="481.2" y="704.8" width="62.8" height="223.7"/>
	<rect x="87.7" y="480.8" width="167.6" height="62.8"/>
	<rect x="757.4" y="480.8" width="187.3" height="62.8"/>
</g>
</svg>
