<?xml version="1.0" standalone="no"?><!DOCTYPE svg PUBLIC "-//W3C//DTD SVG 1.1//EN" "http://www.w3.org/Graphics/SVG/1.1/DTD/svg11.dtd"><svg t="1498551951606" class="icon" style="" viewBox="0 0 1024 1024" version="1.1" xmlns="http://www.w3.org/2000/svg" p-id="2050" xmlns:xlink="http://www.w3.org/1999/xlink" width="200" height="200"><defs><style type="text/css"></style></defs><path d="M511.964696 0.054235c-283.135522 0-511.943718 228.808196-511.943718 511.946788 0 283.136545 228.808196 511.942695 511.943718 511.942695 283.138592 0 511.947811-228.807173 511.947811-511.942695C1023.912507 228.862431 795.103288 0.054235 511.964696 0.054235zM553.757544 783.64277l-83.58365 0 0-52.236712 83.58365 0L553.757544 783.64277zM678.089247 519.312546l-124.331703-121.194246 0 260.152065-83.58365 0L470.173894 394.984936 346.889033 526.628162l-38.657438-39.703257 198.510146-207.913307 1.044796 1.045819 0-1.045819 207.913307 199.555965L678.089247 519.312546z" p-id="2051"></path></svg>