<?xml version="1.0" standalone="no"?><!DOCTYPE svg PUBLIC "-//W3C//DTD SVG 1.1//EN" "http://www.w3.org/Graphics/SVG/1.1/DTD/svg11.dtd"><svg t="1503736704615" class="icon" style="" viewBox="0 0 1024 1024" version="1.1" xmlns="http://www.w3.org/2000/svg" p-id="1925" xmlns:xlink="http://www.w3.org/1999/xlink" width="200" height="200"><defs><style type="text/css"></style></defs><path d="M328.040756 935.490154c-105.531522-53.635571-147.69276-181.27767-94.01421-284.607036l259.629155-499.510548c41.783639-80.366376 142.535297-111.805412 224.595244-70.094428 82.058924 41.756009 114.891703 141.014664 73.079412 221.38104L553.317523 760.559029c-29.817096 57.373709-101.794407 79.830163-160.39813 50.04172-58.576093-29.816073-82.032318-100.721982-52.215222-158.094668l129.799228-249.76346c5.997598-11.518335 20.369933-15.994276 32.132838-10.055007 11.7056 5.997598 16.401552 20.138666 10.404977 31.671327L383.241986 674.122401c-17.879206 34.424021-3.826142 76.961836 31.336706 94.840018 35.149545 17.878183 78.323856 4.40431 96.201016-30.019711l238.07014-457.900871c29.818119-57.372685 6.346545-128.336924-52.273551-158.108994-58.560744-29.759791-130.566708-7.331989-160.38278 50.04172L276.564361 672.499437c-41.797965 80.380702-8.982582 179.624007 73.079412 221.38104 82.060971 41.665958 182.810582 10.284227 224.595244-70.095451L725.669916 532.367887c5.998621-11.473309 20.370956-15.934924 32.106232-9.995655 11.7056 5.997598 16.429181 20.137643 10.431583 31.641651l-151.49025 291.38644C563.052235 948.674431 433.499623 989.066373 328.040756 935.490154L328.040756 935.490154 328.040756 935.490154z" p-id="1926"></path></svg>