<!-- Generated by IcoMoon.io -->
<svg version="1.1" xmlns="http://www.w3.org/2000/svg" width="32" height="32" viewBox="0 0 32 32">
<title>checked-3</title>
<path d="M16 2.062c-7.685 0-13.938 6.253-13.938 13.938s6.252 13.938 13.938 13.938 13.938-6.252 13.938-13.938c0-7.685-6.252-13.938-13.938-13.938zM16 27.938c-6.583 0-11.938-5.356-11.938-11.938s5.355-11.938 11.938-11.938c6.582 0 11.938 5.355 11.938 11.938 0 6.582-5.356 11.938-11.938 11.938z"></path>
<path d="M16 11c-2.757 0-5 2.243-5 5s2.243 5 5 5 5-2.243 5-5-2.243-5-5-5z"></path>
</svg>
