<!-- Generated by IcoMoon.io -->
<svg version="1.1" xmlns="http://www.w3.org/2000/svg" width="32" height="32" viewBox="0 0 32 32">
<title>down</title>
<path d="M27.823 10.341c-0.393-0.388-1.025-0.386-1.414 0.006l-10.245 10.339-10.388-10.295c-0.393-0.389-1.025-0.386-1.415 0.006-0.389 0.393-0.386 1.026 0.006 1.415l11.041 10.941c0.017 0.017 0.039 0.021 0.056 0.037 0.004 0.004 0.005 0.009 0.009 0.013 0.195 0.193 0.45 0.29 0.704 0.29 0.257 0 0.515-0.099 0.71-0.296l10.941-11.041c0.39-0.393 0.387-1.026-0.005-1.415z"></path>
</svg>
