<?xml version="1.0" standalone="no"?><!DOCTYPE svg PUBLIC "-//W3C//DTD SVG 1.1//EN" "http://www.w3.org/Graphics/SVG/1.1/DTD/svg11.dtd"><svg t="1505355502289" class="icon" style="" viewBox="0 0 1024 1024" version="1.1" xmlns="http://www.w3.org/2000/svg" p-id="1078" xmlns:xlink="http://www.w3.org/1999/xlink" width="200" height="200"><defs><style type="text/css"></style></defs><path d="M396.826211 820.075832H214.71592c-19.01867 0-34.478314-15.543603-34.478315-34.808006V198.956277c0-19.231638 15.573296-34.808006 34.808006-34.808006h586.310525c19.186587 0 34.808006 15.554866 34.808006 34.441455v136.278113c0 13.253172 10.743629 23.997824 23.997824 23.997824 13.253172 0 23.997824-10.743629 23.997824-23.997824v-136.279137c0-45.437983-37.154751-82.436079-82.80263-82.436079H215.044587c-45.743101 0-82.80263 37.066697-82.80263 82.80263v586.310525c0 45.713408 36.889564 82.80263 82.472939 82.80263h182.110292c13.253172 0 23.997824-10.743629 23.997824-23.997824 0-13.252148-10.743629-23.994753-23.996801-23.994752zM860.160942 761.418465c-13.253172 0-23.997824 10.743629-23.997824 23.997824 0 19.202969-15.458621 34.660566-34.787528 34.660566h-2.023197c-13.253172 0-23.997824 10.743629-23.997825 23.997825 0 13.253172 10.743629 23.997824 23.997825 23.997824h2.023197c45.83525 0 82.782152-36.94383 82.782152-82.655191 0-13.256243-10.743629-23.998848-23.9968-23.998848z" p-id="1079"></path><path d="M691.846481 285.606668c0-13.345321-10.782536-23.997824-24.08383-23.997824H267.980482c-13.452829 0-24.083831 10.743629-24.08383 23.997824 0 13.345321 10.782536 23.997824 24.08383 23.997824h399.782169c13.452829 0 24.083831-10.744653 24.08383-23.997824zM267.94567 453.588366a23.945606 23.945606 0 0 0-24.049018 23.997824c0 13.345321 10.767178 23.997824 24.049018 23.997825h271.865103a23.945606 23.945606 0 0 0 24.049019-23.997825c0-13.345321-10.767178-23.997824-24.049019-23.997824H267.94567zM978.482154 533.308077L844.815973 399.641896c-12.534404-12.534404-32.766378-12.577407-45.217848-0.125938L492.823652 706.291455c-12.395156 12.395156-22.545955 36.874206-22.545955 54.549539v82.885565c0 35.35988 28.707697 64.120818 64.120818 64.120818h82.885565c17.956901 0 42.098069-10.094485 54.549539-22.545955l306.774473-306.774473c12.394132-12.39618 12.395156-32.697778-0.125938-45.218872z m-340.585214 318.054618c-3.526261 3.526261-15.490361 8.489033-20.611836 8.489034H534.399539c-8.882205 0-16.126194-7.249108-16.126194-16.126194v-82.885565c0-4.924888 5.079495-17.203321 8.489034-20.611836L737.843506 529.147008l111.13968 111.129441-211.086246 211.086246z m245.023949-245.022925L771.780185 495.208281l50.363895-50.363896 111.135585 111.135585-50.358776 50.3598z" p-id="1080"></path></svg>