<!-- Generated by IcoMoon.io -->
<svg version="1.1" xmlns="http://www.w3.org/2000/svg" width="32" height="32" viewBox="0 0 32 32">
<title>godScheme</title>
<path d="M12.078 16.322c0-2.084 1.631-3.797 3.684-3.925l2.919-2.919-0.125-0.844c-0.822-0.284-1.672-0.431-2.534-0.431-4.306 0-7.813 3.503-7.813 7.813s3.503 7.813 7.813 7.813 7.813-3.503 7.813-7.813c0-0.769-0.119-1.537-0.353-2.291l-0.647-0.097-2.913 2.912c-0.153 2.116-1.85 3.712-3.913 3.712-2.166 0.003-3.931-1.762-3.931-3.931z"></path>
<path d="M25.341 12.928l-0.191 0.191c0.291 0.916 0.45 1.887 0.45 2.897 0 5.278-4.294 9.575-9.575 9.575s-9.572-4.294-9.572-9.575 4.294-9.575 9.575-9.575c1.159 0 2.269 0.219 3.297 0.597l3.353-3.353c-1.981-1.075-4.253-1.688-6.669-1.688-7.734 0-14.003 6.269-14.003 14.003s6.269 14.003 14.003 14.003c7.734 0 14.003-6.269 14.003-14.003 0-2.253-0.544-4.372-1.488-6.256l-3.184 3.184z"></path>
<path d="M16.55 14.519l-0.156-0.031c-0.128-0.025-0.256-0.041-0.384-0.041-1.034 0-1.878 0.841-1.878 1.875s0.844 1.878 1.878 1.878c1.034 0 1.878-0.841 1.878-1.878 0-0.128-0.016-0.262-0.050-0.409l-0.034-0.156 4.309-4.309 2.291 0.341 5.781-5.781-3.375-0.5-0.5-3.375-5.781 5.781 0.341 2.291-4.319 4.316z"></path>
</svg>
