<!-- Generated by IcoMoon.io -->
<svg version="1.1" xmlns="http://www.w3.org/2000/svg" width="32" height="32" viewBox="0 0 32 32">
<title>history</title>
<path fill="#1296db" d="M15.997 2c-7.719 0-13.998 6.279-13.998 13.998s6.278 13.998 13.998 13.998 13.998-6.279 13.998-13.998-6.279-13.998-13.998-13.998zM15.997 27.99c-6.612 0-11.993-5.381-11.993-11.993s5.375-11.993 11.993-11.993 11.993 5.375 11.993 11.993-5.381 11.993-11.993 11.993z"></path>
<path fill="#1296db" d="M21.002 15.997h-4.999v-6.993c0-0.554-0.446-1.005-1-1.005s-1 0.452-1 1.005v7.999c0 0.554 0.446 1 1 1h5.999c0.554 0 1.005-0.446 1.005-1-0.005-0.559-0.457-1.005-1.005-1.005z"></path>
</svg>
