<?xml version="1.0" encoding="utf-8"?>
<!-- Generator: Adobe Illustrator 19.0.0, SVG Export Plug-In . SVG Version: 6.00 Build 0)  -->
<svg version="1.1" id="图层_1" xmlns="http://www.w3.org/2000/svg" xmlns:xlink="http://www.w3.org/1999/xlink" x="0px" y="0px"
	 viewBox="0 0 1024 1024" style="enable-background:new 0 0 1024 1024;" xml:space="preserve">
<style type="text/css">
	.st0{fill:#231815;}
</style>
<g id="XMLID_508_">
	<path id="XMLID_516_" class="st0" d="M765.3,64.2H262.1c-46.8,0-84.8,38-84.8,84.8v726.2c0,46.8,38,84.8,84.8,84.8h503.2
		c46.8,0,84.8-38,84.8-84.8V514.3v-44.4V149C850.1,102.3,812.1,64.2,765.3,64.2z M760.7,870.6h-494V657.9h494v28.2V870.6z
		 M760.7,573.6h-494V153.6h494v316.2v44.5V573.6z"/>
	<path id="XMLID_518_" class="st0" d="M528.8,724.7h-30.2c-23.3,0-42.2,18.9-42.2,42.2c0,23.3,18.9,42.2,42.2,42.2h30.2
		c23.3,0,42.2-18.9,42.2-42.2C571,743.6,552.1,724.7,528.8,724.7z"/>
</g>
</svg>
