<!-- Generated by IcoMoon.io -->
<svg version="1.1" xmlns="http://www.w3.org/2000/svg" width="32" height="32" viewBox="0 0 32 32">
<title>scheme</title>
<path d="M8.909 15.384h6.5v2.475h-6.5v-2.475z"></path>
<path d="M8.909 21.566h13.203v2.475h-13.203v-2.475z"></path>
<path d="M18.216 1.997v0l-12.4 0.003c-1.294 0-2.35 1.053-2.35 2.35v23.288c0 1.297 1.053 2.35 2.35 2.35h20.366c1.294 0 2.35-1.053 2.35-2.35v-17.619l-7.841-8.019h-2.475zM26.056 27.509h-20.113v-23.034h12.269v5.412c0 1.297 1.053 2.35 2.35 2.35h5.494v15.272zM24.841 9.762h-4.15v-4.228l4.15 4.228z"></path>
</svg>
