<!-- Generated by IcoMoon.io -->
<svg version="1.1" xmlns="http://www.w3.org/2000/svg" width="32" height="32" viewBox="0 0 32 32">
<title>search</title>
<path d="M29.978 28.091l-5.919-5.988c1.863-2.116 3.003-4.884 3.003-7.916 0-3.581-1.581-6.947-4.337-9.241l-1.738 2.088c2.134 1.775 3.356 4.381 3.356 7.153 0 5.125-4.169 9.294-9.294 9.294s-9.294-4.172-9.294-9.294 4.169-9.294 9.294-9.294c0.753 0 1.494 0.088 2.212 0.263 0.428 0.103 0.841 0.237 1.244 0.4l1.009-2.522c-0.519-0.206-1.056-0.381-1.606-0.516-0.928-0.225-1.887-0.341-2.856-0.341-6.628-0.003-12.012 5.384-12.012 12.009s5.387 12.009 12.009 12.009c2.609 0 5.022-0.847 6.994-2.266l6.003 6.069 1.931-1.909z"></path>
</svg>
