<?xml version="1.0" standalone="no"?><!DOCTYPE svg PUBLIC "-//W3C//DTD SVG 1.1//EN" "http://www.w3.org/Graphics/SVG/1.1/DTD/svg11.dtd"><svg t="1503736715643" class="icon" style="" viewBox="0 0 1024 1024" version="1.1" xmlns="http://www.w3.org/2000/svg" p-id="2255" xmlns:xlink="http://www.w3.org/1999/xlink" width="200" height="200"><defs><style type="text/css"></style></defs><path d="M941.647 125.022l-23.465-23.465c-25.921-25.919-67.918-25.919-93.846 0l-309.382 309.382-301.932-301.959c-26.191-26.156-68.577-26.156-94.753 0l-23.654 23.683c-26.183 26.156-26.183 68.569 0 94.719l301.932 301.959-303.558 303.566c-25.919 25.919-25.919 67.941 0 93.837l23.471 23.469c25.915 25.919 67.918 25.919 93.834 0l303.561-303.566 318.946 318.948c26.16 26.16 68.562 26.16 94.706 0l23.69-23.67c26.156-26.166 26.156-68.579 0-94.753l-318.946-318.919 309.382-309.391c25.935-25.93 25.935-67.927 0.004-93.846z" p-id="2256"></path></svg>