<?xml version="1.0" standalone="no"?><!DOCTYPE svg PUBLIC "-//W3C//DTD SVG 1.1//EN" "http://www.w3.org/Graphics/SVG/1.1/DTD/svg11.dtd"><svg t="1503736690655" class="icon" style="" viewBox="0 0 1024 1024" version="1.1" xmlns="http://www.w3.org/2000/svg" p-id="1481" xmlns:xlink="http://www.w3.org/1999/xlink" width="200" height="200"><defs><style type="text/css"></style></defs><path d="M512 0C229.2 0 0 229.2 0 512s229.2 512 512 512 512-229.2 512-512S794.8 0 512 0z m311.6 317.8c-0.7 2.5-1.9 4.9-3.3 7.3L515.8 810.3H357.7L307 362.8c-1.8-17.4-6.2-30.4-12.9-39-6.8-8.6-17.2-14.1-31.1-16.5l6.6-17.9h143.7c15.4 0 26.9 3.7 34.4 11s12.2 19.4 14 36.3l28.1 311.2L648 349.5c1.5-3.1 2.7-6.3 3.9-9.6 1.1-3.3 1.6-6 1.6-7.8 0-7-2.8-12.6-8.3-16.8-5.5-4.1-13.6-6.8-24.2-8l5.5-17.9H790c10.6 0 19.1 1.9 25.3 5.7 6.2 3.8 9.4 8.8 9.4 14.9 0.1 2.8-0.3 5.4-1.1 7.8z" p-id="1482"></path></svg>