<?xml version="1.0" standalone="no"?><!DOCTYPE svg PUBLIC "-//W3C//DTD SVG 1.1//EN" "http://www.w3.org/Graphics/SVG/1.1/DTD/svg11.dtd"><svg t="1503736730022" class="icon" style="" viewBox="0 0 1024 1024" version="1.1" xmlns="http://www.w3.org/2000/svg" p-id="3443" xmlns:xlink="http://www.w3.org/1999/xlink" width="200" height="200"><defs><style type="text/css"></style></defs><path d="M938.461867 148.8896l-42.222934-0.682667c-0.989867 0-95.6416-2.048-193.365333-41.710933C602.589867 65.706667 537.941333 18.909867 537.361067 18.432L511.863467 0l-25.326934 18.466133c-0.6144 0.443733-65.262933 47.240533-165.512533 88.029867C223.368533 146.193067 128.682667 148.206933 127.726933 148.206933L85.333333 148.8896v430.4896C85.333333 795.477333 362.8032 1024 511.965867 1024 661.230933 1024 938.666667 795.477333 938.666667 579.3792l-0.2048-430.4896zM464.349867 699.733333l-181.179734-154.487466 55.739734-65.604267 116.189866 98.986667L675.669333 324.266667l65.1264 56.593066-276.48 318.8736z" p-id="3444"></path></svg>